<?xml version="1.0" encoding="UTF-8" standalone="no"?>
<!-- Created with Inkscape (http://www.inkscape.org/) -->

<svg
   xmlns:dc="http://purl.org/dc/elements/1.1/"
   xmlns:cc="http://creativecommons.org/ns#"
   xmlns:rdf="http://www.w3.org/1999/02/22-rdf-syntax-ns#"
   xmlns:svg="http://www.w3.org/2000/svg"
   xmlns="http://www.w3.org/2000/svg"
   xmlns:sodipodi="http://sodipodi.sourceforge.net/DTD/sodipodi-0.dtd"
   xmlns:inkscape="http://www.inkscape.org/namespaces/inkscape"
   width="499.99997"
   height="500.00137"
   viewBox="0 0 499.99998 500.00139"
   id="svg2"
   version="1.1"
   inkscape:version="0.91 r13725"
   sodipodi:docname="squatch-logo.svg">
  <defs
     id="defs4" />
  <sodipodi:namedview
     id="base"
     pagecolor="#ffffff"
     bordercolor="#666666"
     borderopacity="1.0"
     inkscape:pageopacity="0.0"
     inkscape:pageshadow="2"
     inkscape:zoom="0.85589176"
     inkscape:cx="246.42856"
     inkscape:cy="246.52648"
     inkscape:document-units="px"
     inkscape:current-layer="layer1"
     showgrid="false"
     fit-margin-top="0"
     fit-margin-left="0"
     fit-margin-right="0"
     fit-margin-bottom="0"
     units="px"
     inkscape:window-width="1920"
     inkscape:window-height="1017"
     inkscape:window-x="0"
     inkscape:window-y="30"
     inkscape:window-maximized="1" />
  <metadata
     id="metadata7">
    <rdf:RDF>
      <cc:Work
         rdf:about="">
        <dc:format>image/svg+xml</dc:format>
        <dc:type
           rdf:resource="http://purl.org/dc/dcmitype/StillImage" />
        <dc:title></dc:title>
      </cc:Work>
    </rdf:RDF>
  </metadata>
  <g
     inkscape:label="Layer 1"
     inkscape:groupmode="layer"
     id="layer1"
     transform="translate(-122.5853,-248.88009)">
    <g
       id="g4469"
       style="stroke:#000000;stroke-opacity:1"
       transform="matrix(1.0144927,0,0,1.0140926,331.28094,50.909603)">
      <circle
         r="246.42857"
         cy="441.64792"
         cx="40.714283"
         id="path4430-6"
         style="color:#000000;clip-rule:nonzero;display:inline;overflow:visible;visibility:visible;opacity:1;isolation:auto;mix-blend-mode:normal;color-interpolation:sRGB;color-interpolation-filters:linearRGB;solid-color:#000000;solid-opacity:1;fill:#ffffff;fill-opacity:1;fill-rule:evenodd;stroke:#000000;stroke-width:0;stroke-linecap:butt;stroke-linejoin:miter;stroke-miterlimit:4;stroke-dasharray:none;stroke-dashoffset:0;stroke-opacity:1;color-rendering:auto;image-rendering:auto;shape-rendering:auto;text-rendering:auto;enable-background:accumulate" />
      <path
         id="path4414"
         d="m 37.449219,253.57031 c -8.477575,-0.31593 -16.229751,6.90038 -24.617188,22.3711 -2.9892102,5.51361 -7.9119549,13.4599 -10.9394529,17.6582 -3.027491,4.19829 -7.3513388,13.83075 -9.6074219,21.40625 -4.6153342,15.49742 -15.6581182,28.26387 -30.1679682,34.875 -6.692583,3.04935 -20.43184,22.25501 -23.400391,32.71094 -1.392333,4.9041 -3.133451,13.31462 -3.869141,18.68945 -0.73569,5.37483 -3.428628,18.56675 -5.986328,29.31641 -2.5577,10.74965 -4.579164,23.94354 -4.490234,29.31836 0.1804,10.91024 -3.772214,52.80531 -5.058594,54.88671 -0.45365,0.73403 -2.663106,15.05081 -4.910156,26.25977 -3.81633,19.03696 -3.886501,21.02688 -1.050782,30.20508 1.669651,5.40404 4.627919,18.3591 6.574219,28.78906 3.08621,16.53873 4.432557,19.9528 10.529297,26.70117 3.84482,4.25572 7.974277,9.57525 9.175781,11.82031 2.169611,4.05395 8.715616,5.56545 10.636719,2.45704 0.551699,-0.89274 -0.3757,-6.38904 -2.0625,-12.21485 -3.375682,-11.65903 -3.786644,-17.63927 -1.566406,-22.81445 1.149292,-2.67893 1.961028,-1.75717 3.771484,4.28906 2.921497,9.75672 5.855223,10.74452 9.720703,3.26953 3.853048,-7.45093 3.830799,-11.54638 -0.109375,-20.97656 -3.637747,-8.7063 2.487032,-38.47684 2.337891,-53.44922 -0.03908,-3.92363 -0.485463,-12.37983 0.146484,-16.67969 1.579106,-10.74429 5.106255,-24.05048 7.041016,-21.89453 0.880592,0.98127 2.020618,18.4323 3.408203,30.92188 4.01666,36.15368 1.323198,119.05015 -4.392578,145.75586 a 246.42857,246.42857 0 0 0 65.865234,10.51953 c 0.504722,-6.88387 1.304128,-22.20976 4.791016,-43.5625 2.930931,-17.94822 5.834995,-31.37354 14.013672,-41.27734 1.95769,-2.37063 9.508568,24.289 11.576172,31.74609 4.484829,16.17512 4.791291,34.63796 8.230468,50.98242 a 246.42857,246.42857 0 0 0 66.945318,-18.78711 c -1.88502,-9.97254 -2.43256,-24.32229 -2.85157,-27.13672 -4.67064,-31.37238 -4.68014,-50.79607 -8.61133,-68.40625 -1.6798,-7.52477 -3.10013,-20.71665 -3.15625,-29.3164 -0.0562,-8.59966 -1.37394,-22.67177 -2.92773,-31.27149 -4.37288,-24.20235 -11.31374,-31.17025 -1.73828,-20.82031 4.56861,4.93814 18.20107,16.81401 21.56445,18.53125 6.88733,3.51644 8.66279,6.75743 9.71094,17.73437 0.40055,4.19478 2.05863,9.66047 3.6875,12.14649 1.62884,2.48595 2.96289,6.80941 2.96289,9.60937 0,4.15551 0.80568,4.9766 4.37891,4.4668 2.4077,-0.34354 4.54837,-1.94419 4.75976,-3.55664 0.21142,-1.61244 0.95325,-7.22664 1.64649,-12.47656 l 1.25976,-9.54492 5.70508,6.24414 c 6.63217,7.26126 6.91773,9.43693 2.29688,17.48828 -2.68085,4.67114 -2.89908,6.44465 -1.02344,8.32031 1.87566,1.87567 3.17583,1.6696 6.09765,-0.97461 3.27907,-2.96751 3.84916,-3.00886 4.8711,-0.3457 1.45646,3.79548 6.37457,3.93145 7.80078,0.21484 2.35378,-6.1339 5.42811,-35.47314 4.33008,-41.32617 -0.64248,-3.42475 -3.71415,-9.73989 -6.82422,-14.0332 -3.11005,-4.29334 -7.39605,-11.21433 -9.52539,-15.37891 -2.12935,-4.16457 -9.45999,-14.93935 -16.28906,-23.94531 -17.08983,-22.53764 -20.70916,-28.15351 -24.36915,-37.8086 -10.13765,-26.74336 -19.29855,-48.4834 -23.51171,-55.79296 -4.71541,-8.18095 -17.79306,-19.73725 -29.626958,-26.17969 C 82.454876,338.86962 78.798272,330.90212 76.173828,311.86914 74.457616,299.4228 72.247511,292.70556 66.498047,282.45898 56.488809,264.62075 54.231803,261.58743 47.816406,257.35742 44.195933,254.97025 40.76653,253.69394 37.449219,253.57031 Z"
         style="fill:#000000;stroke:#000000;stroke-opacity:1"
         inkscape:connector-curvature="0" />
    </g>
  </g>
</svg>
