<?xml version="1.0" encoding="UTF-8" standalone="no"?>
<!-- Created with Inkscape (http://www.inkscape.org/) -->

<svg
   xmlns:dc="http://purl.org/dc/elements/1.1/"
   xmlns:cc="http://creativecommons.org/ns#"
   xmlns:rdf="http://www.w3.org/1999/02/22-rdf-syntax-ns#"
   xmlns:svg="http://www.w3.org/2000/svg"
   xmlns="http://www.w3.org/2000/svg"
   xmlns:sodipodi="http://sodipodi.sourceforge.net/DTD/sodipodi-0.dtd"
   xmlns:inkscape="http://www.inkscape.org/namespaces/inkscape"
   id="svg4222"
   version="1.1"
   inkscape:version="0.91 r13725"
   width="1170"
   height="1170"
   viewBox="0 0 1170 1170"
   sodipodi:docname="tree-pattern.svg">
  <metadata
     id="metadata4228">
    <rdf:RDF>
      <cc:Work
         rdf:about="">
        <dc:format>image/svg+xml</dc:format>
        <dc:type
           rdf:resource="http://purl.org/dc/dcmitype/StillImage" />
        <dc:title></dc:title>
      </cc:Work>
    </rdf:RDF>
  </metadata>
  <defs
     id="defs4226" />
  <sodipodi:namedview
     pagecolor="#ffffff"
     bordercolor="#666666"
     borderopacity="1"
     objecttolerance="10"
     gridtolerance="10"
     guidetolerance="10"
     inkscape:pageopacity="0"
     inkscape:pageshadow="2"
     inkscape:window-width="1920"
     inkscape:window-height="1017"
     id="namedview4224"
     showgrid="false"
     inkscape:zoom="0.25504193"
     inkscape:cx="377.62035"
     inkscape:cy="562.33855"
     inkscape:window-x="0"
     inkscape:window-y="30"
     inkscape:window-maximized="1"
     inkscape:current-layer="svg4222" />
  <path
     style="fill:#000000;fill-opacity:1;stroke:none"
     d="m 99.886656,169.81476 c -0.52059,-0.63523 -1.2394,-3.91988 -1.59733,-7.29921 l -0.6508,-6.14424 -8.71033,-10.05576 c -4.79068,-5.53067 -9.49891,-10.99439 -10.46274,-12.14161 -0.96382,-1.14721 -4.44616,-4.09215 -7.73853,-6.54429 -5.12454,-3.81676 -7.06388,-5.91522 -7.06388,-7.64347 0,-0.20701 0.62911,-0.37639 1.39801,-0.37639 2.33341,0 13.24193,9.43089 21.09586,18.2383 9.13304,10.24179 11.55802,12.24521 12.67889,10.4748 0.43982,-0.69471 0.80588,-2.69557 0.81346,-4.44636 0.0117,-2.70108 -1.01732,-4.33705 -6.7931,-10.8 -7.65734,-8.56838 -26.49312,-32.88903 -26.49312,-34.207763 0,-0.47244 0.78878,-0.85898 1.75284,-0.85898 1.18002,0 4.38871,3.455833 9.81874,10.575003 8.66647,11.36238 16.77174,20.9581 18.62632,22.05143 0.63107,0.37204 1.73406,0.45132 2.45109,0.17617 1.031614,-0.39587 1.209834,-1.85181 0.85393,-6.97643 -0.37928,-5.46136 -0.86013,-6.96977 -3.06864,-9.62617 -1.44038,-1.7325 -5.2702,-6.39 -8.51071,-10.35 -3.24051,-3.960003 -7.06897,-8.140613 -8.5077,-9.290233 -3.05647,-2.4423 -3.5204,-5.55977 -0.82737,-5.55977 1.14389,0 3.81999,2.50583 7.425,6.95253 9.64642,11.898683 12.23248,14.401133 13.27672,12.847473 0.499044,-0.7425 0.777274,-3.78 0.618314,-6.75 -0.275204,-5.141433 -0.596204,-5.800713 -6.703894,-13.768383 -5.9133,-7.71409 -7.26858,-11.09078 -4.38335,-10.92113 0.56579,0.0333 3.1838,2.67184 5.8178,5.86351 2.63399,3.19166 5.165244,5.57054 5.625004,5.28639 0.45975,-0.28414 0.83591,-1.82922 0.83591,-3.43351 0,-2.76864 1.30941,-5.07688 2.88,-5.07688 0.396,0 0.72,2.6554 0.72,5.90089 l 0,5.90087 2.7553,-1.62587 c 1.51542,-0.89424 5.59062,-4.21294 9.056,-7.3749 4.55314,-4.15446 6.57319,-5.4765 7.28318,-4.76651 1.429,1.429 -2.13792,5.72852 -11.22199,13.52679 -8.45514,7.25837 -9.67249,9.153693 -9.67249,15.059333 0,5.0509 1.80676,6.04158 5.22873,2.86696 2.70859,-2.5128 19.70892,-13.287563 20.96501,-13.287563 0.44344,0 0.80626,0.78639 0.80626,1.74754 0,1.25185 -2.96285,3.613193 -10.44564,8.325003 -11.51775,7.25254 -16.50704,11.99104 -16.64156,15.80505 -0.1252,3.54959 0.201,9.62164 0.53526,9.96378 0.50677,0.51868 6.02608,-2.64788 16.17318,-9.27893 23.11705,-15.10683 27.47876,-17.41147 27.47876,-14.51926 0,1.60815 -3.66026,4.31992 -15.3,11.33526 -11.27934,6.79814 -22.90514,14.68588 -26.325,17.86068 -1.98412,1.84194 -2.475,3.091 -2.475,6.29776 l 0,4.00013 3.375,-0.45351 c 1.85625,-0.24943 6.95896,-2.12525 11.33936,-4.16851 4.38041,-2.04324 8.12639,-3.71499 8.32441,-3.71499 0.19802,0 4.04635,-1.82103 8.55184,-4.04674 8.0656,-3.98439 9.80939,-4.29836 9.80939,-1.76615 0,1.32358 -16.89354,9.78452 -32.22271,16.13836 -4.60472,1.90863 -8.76907,4.21175 -9.2541,5.11805 -0.48503,0.9063 -0.76743,4.74628 -0.62754,8.53329 0.25336,6.85877 -0.61234,8.94142 -2.672044,6.42816 z"
     id="path4232"
     inkscape:connector-curvature="0"
     sodipodi:nodetypes="sscssssssssssssssssssssssscssssscsssssssssscssssscsssssssss" />
  <path
     style="fill:#000000;fill-opacity:1;fill-rule:evenodd;stroke:none;stroke-width:1px;stroke-linecap:butt;stroke-linejoin:miter;stroke-opacity:1"
     d="m 1006.2071,79.738111 c -5.8596,6.87692 -20.23072,9.78087 -23.77062,16.29634 -0.70301,1.29396 0.6981,2.87935 2.08299,3.06322 3.29045,0.43687 9.86701,-3.72949 15.92873,-6.61656 3.0237,-1.44011 9.1897,-5.88138 9.6798,2.69564 0.5592,9.786349 1.7305,8.658799 -10.29242,17.675999 -2.94069,2.20552 -18.01857,7.12033 -19.1145,9.31219 -1.34782,2.69563 4.7596,1.30749 9.508,0.25228 3.30828,-0.73518 17.44832,-5.88861 17.44832,-5.88861 2.3854,2.35488 4.166,17.3991 -0.3676,22.17773 -7.0152,7.39449 -25.85355,15.07104 -27.07884,18.50185 -1.22529,3.43081 9.22089,-0.61764 12.25288,-1.7154 8.75066,-3.16827 14.94856,-8.20944 18.50186,-6.73909 2.0379,0.84328 4.1417,14.55867 -0.9802,21.07497 -4.5026,5.72835 -29.03936,14.58094 -29.03936,16.29634 0,1.71541 2.28518,2.16482 5.14621,1.96046 8.57703,-0.61264 23.03545,-12.49794 24.99585,-11.51771 1.9605,0.98023 4.6561,0.49012 4.6561,8.33197 0,7.84184 1.0955,52.52582 4.166,52.52582 7.1067,1e-5 2.5323,-38.14763 2.4506,-44.92904 -0.074,-6.126 -2.2055,-17.88921 2.6956,-17.15404 4.9012,0.73517 20.2573,7.03995 23.2805,5.63633 6.8616,-3.18575 -6.9841,-6.98415 -8.4545,-6.98415 -1.4703,0 -13.0779,-4.22595 -16.5414,-8.69955 -2.9407,-3.7984 -5.0237,-17.88921 -3.4308,-17.88921 4.166,0 18.0249,4.99008 21.9363,6.00752 3.0266,0.78729 12.0775,2.62897 11.3423,0.42345 -0.7352,-2.20552 -15.3581,-5.6189 -21.8834,-9.37166 -3.8001,-2.18548 -7.0672,-6.07944 -9.5819,-8.94462 -3.5164,-4.00655 -5.2531,-15.01252 -2.671,-15.92874 3.7984,-1.34783 15.1762,4.90837 23.5081,6.37872 3.8158,0.67336 9.7136,-0.43605 6.7319,-2.28962 -7.4718,-4.64493 -23.3784,-6.90727 -29.6273,-19.16016 -2.6721,-5.239339 -3.8536,-15.939909 -0.7178,-14.893279 0,0 6.4787,0.3198 12.2355,2.48602 5.589,2.10313 11.696,2.31568 12.2529,-0.36758 0.3434,-1.65511 -1.9982,-3.71285 -9.0672,-5.39127 -6.0886,-1.44567 -17.6441,-9.43473 -20.7074,-13.60071 -2.0323,-2.76404 -6.5475,5.89651 -7.4742,6.98415 z"
     id="path4235"
     inkscape:connector-curvature="0"
     sodipodi:nodetypes="sssssssssssssssssssssssssssssssssssssss" />
  <path
     style="fill:#000000;fill-opacity:1;fill-rule:evenodd;stroke:none;stroke-width:1px;stroke-linecap:butt;stroke-linejoin:miter;stroke-opacity:1"
     d="m 399.71484,1083.599 c -0.18292,-0.013 -0.34204,0.036 -0.4707,0.1601 -25.46421,24.5211 -28.56166,19.5842 -32.10156,26.0996 -0.70301,1.294 0.69714,2.8787 2.08203,3.0625 3.29045,0.4369 8.52028,-4.7086 14.58203,-7.5957 3.02369,-1.4401 10.53722,-4.9012 11.02734,3.6758 0.55922,9.7864 1.72997,15.2426 -10.29296,24.2598 -2.94069,2.2055 -18.01736,7.1206 -19.11329,9.3125 -1.34782,2.6956 -0.0922,5.4653 4.65625,4.4101 3.30828,-0.7351 22.29883,-10.0468 22.29883,-10.0468 2.38542,2.3548 4.16637,17.3991 -0.36719,22.1777 -3.97626,4.1912 -10.51932,7.8983 -15.70898,10.9687 l 13.62305,0 c 2.30553,-1.1294 3.91655,-1.6854 5.76172,-0.9218 0.26111,0.108 0.52355,0.4334 0.77148,0.9218 l 7.62305,0 c -0.0179,-1.3845 0.15187,-2.2695 0.55078,-2.2695 1.55277,0 4.74459,0.9847 8.33594,2.2695 l 14.87109,0 c -3.53248,-1.4487 -8.15999,-3.1083 -11.8125,-5.2089 -3.8001,-2.1855 -9.49311,-6.0802 -12.00781,-8.9454 -3.51643,-4.0065 -2.82623,-15.0134 -0.24414,-15.9296 3.7984,-1.3479 16.90826,9.0687 25.24023,10.539 3.81574,0.6734 5.55391,-1.8222 2.57227,-3.6758 -7.47182,-4.6449 -20.95219,-9.6807 -27.20118,-21.9336 -2.67205,-5.2393 -5.58502,-31.1892 -2.44921,-30.1425 0,0 6.98543,6.7791 12.74218,8.9453 5.58908,2.1031 13.47852,1.8379 13.47852,1.8379 -0.17212,-2.6915 -1.99942,-3.7122 -9.06836,-5.3907 -6.08863,-1.4456 -10.78248,-6.7402 -13.8457,-10.9062 -1.77834,-2.4185 -4.25272,-5.584 -5.53321,-5.6738 z m -3.25195,86.4843 c 0.10767,0.2122 0.21147,0.4581 0.3125,0.7305 -0.10113,-0.2727 -0.20472,-0.5181 -0.3125,-0.7305 z m -20.15625,0 c -0.9803,0.58 -1.94778,1.158 -2.80078,1.6895 0.86571,-0.5394 1.80919,-1.1028 2.80078,-1.6895 z m -2.80078,1.6895 c -0.8355,0.5206 -1.5842,1.0128 -2.24609,1.4844 0.66266,-0.4713 1.41306,-0.9654 2.24609,-1.4844 z m 54.34766,-1.6856 c 0.61107,0.2508 1.17419,0.4931 1.70898,0.7325 -0.52924,-0.2374 -1.10126,-0.4831 -1.70898,-0.7325 z m 2.26171,0.9922 c 0.45078,0.2121 0.89456,0.4241 1.25782,0.6289 -0.35988,-0.2041 -0.80962,-0.4173 -1.25782,-0.6289 z m 1.25782,0.6289 c 0.20628,0.1163 0.39279,0.2295 0.5664,0.3438 -0.17152,-0.1138 -0.36238,-0.228 -0.5664,-0.3438 z m -34.44922,-0.4414 c 0.0514,0.1598 0.10369,0.314 0.15234,0.4883 -0.0487,-0.1744 -0.10089,-0.3285 -0.15234,-0.4883 z m 7.24609,0.3536 c 0.0124,0.152 0.0259,0.303 0.041,0.4609 -0.015,-0.1568 -0.0287,-0.31 -0.041,-0.4609 z m 13.33203,0.1484 c 0.85989,0.3285 1.61604,0.6209 2.44922,0.9433 -0.81856,-0.3166 -1.6057,-0.6212 -2.44922,-0.9433 z m 14.62305,0.416 c 0.1138,0.081 0.22503,0.1604 0.32031,0.2402 -0.0942,-0.08 -0.20784,-0.1598 -0.32031,-0.2402 z m -34.91406,0.1094 c 0.0488,0.201 0.0978,0.4018 0.14258,0.6172 -0.0448,-0.2152 -0.0937,-0.4163 -0.14258,-0.6172 z m 35.46289,0.3535 c 0.0549,0.056 0.11965,0.1119 0.16406,0.168 -0.044,-0.056 -0.10981,-0.1117 -0.16406,-0.168 z m -28.36719,0.2539 c 0.0773,0.6549 0.17455,1.3314 0.29102,2.041 -0.11592,-0.7065 -0.21392,-1.3887 -0.29102,-2.041 z m -33.26172,0.5098 c -0.22991,0.1674 -0.44808,0.3332 -0.65039,0.4941 0.20357,-0.1614 0.41923,-0.3261 0.65039,-0.4941 z m 26.4043,0.01 c 0.0467,0.2547 0.0904,0.5171 0.13086,0.7871 -0.0406,-0.2709 -0.084,-0.5316 -0.13086,-0.7871 z m 24.96289,0.2402 c 0.91576,0.3534 1.80652,0.6887 2.5957,0.9844 -0.81601,-0.3056 -1.64482,-0.6173 -2.5957,-0.9844 z m -52.37891,0.5449 c -0.16312,0.1392 -0.32449,0.2783 -0.46289,0.4121 0.13932,-0.134 0.29877,-0.2726 0.46289,-0.4121 z m 27.625,0.5528 c 0.0359,0.2797 0.0653,0.5673 0.0937,0.8593 -0.0285,-0.2923 -0.0578,-0.5793 -0.0937,-0.8593 z m -28.40429,0.1992 c -0.10481,0.117 -0.22464,0.2371 -0.30664,0.3496 0.0825,-0.1124 0.20119,-0.2325 0.30664,-0.3496 z m 57.16406,0.2109 c 0.13916,0.05 0.27088,0.096 0.40234,0.1426 -0.13347,-0.047 -0.26091,-0.092 -0.40234,-0.1426 z m -57.49805,0.1778 c -0.13524,0.1911 -0.24316,0.3788 -0.30664,0.5566 0.0636,-0.1782 0.16966,-0.3644 0.30664,-0.5566 z m 35.78125,0.2285 c 0.1734,0.9795 0.37246,1.9702 0.60742,2.9551 -0.23424,-0.9821 -0.43437,-1.9783 -0.60742,-2.9551 z m -6.89648,0.5879 c 0.0247,0.3139 0.0394,0.6368 0.0547,0.9609 -0.0154,-0.325 -0.0299,-0.6462 -0.0547,-0.9609 z m 0.082,1.5507 c 0.0137,0.4935 0.0185,0.9947 0.008,1.502 0.0107,-0.5071 0.006,-1.0086 -0.008,-1.502 z m 0.008,1.5215 c -0.0114,0.5241 -0.0377,1.0532 -0.0781,1.584 0.0404,-0.5307 0.0667,-1.0601 0.0781,-1.584 z m 7.87891,1.0703 c 0.0537,0.1896 0.10639,0.3732 0.16211,0.5586 -0.0553,-0.184 -0.10879,-0.3704 -0.16211,-0.5586 z m -8.02149,1.1446 c -0.0321,0.3237 -0.0652,0.648 -0.10937,0.9707 0.0443,-0.3235 0.0772,-0.6462 0.10937,-0.9707 z m 8.76953,1.1933 c 0.14251,0.3847 0.29055,0.7423 0.44141,1.086 -0.15051,-0.343 -0.29922,-0.7022 -0.44141,-1.086 z m -8.98632,0.4512 c -0.0508,0.3077 -0.10505,0.614 -0.16797,0.918 0.063,-0.3041 0.1171,-0.6101 0.16797,-0.918 z m 9.55664,0.918 c 0.11349,0.245 0.23021,0.4745 0.34765,0.6914 -0.11748,-0.217 -0.23412,-0.4463 -0.34765,-0.6914 z m -9.87696,0.6738 c -0.0725,0.3009 -0.15256,0.5982 -0.23828,0.8926 0.0858,-0.2947 0.16569,-0.5914 0.23828,-0.8926 z m 10.35938,0.2656 c 0.16125,0.2783 0.32487,0.5378 0.49219,0.7539 -0.16729,-0.216 -0.33097,-0.4757 -0.49219,-0.7539 z m -10.79102,1.2539 c -0.10131,0.3061 -0.21474,0.6049 -0.33203,0.9004 0.11749,-0.296 0.23057,-0.5938 0.33203,-0.9004 z m 12.92774,1.1582 c 0.65172,0.5437 1.39621,1.0753 2.19531,1.5879 -0.79912,-0.5126 -1.54358,-1.0442 -2.19531,-1.5879 z m -13.48438,0.295 c -0.13559,0.3058 -0.28844,0.5983 -0.44336,0.8886 0.1551,-0.2905 0.30763,-0.5825 0.44336,-0.8886 z m -0.71289,1.3984 c -0.0284,0.048 -0.0589,0.093 -0.0879,0.1406 0.029,-0.047 0.0595,-0.093 0.0879,-0.1406 z m 17.62891,0.6484 c 1.26859,0.7366 2.62246,1.4218 3.9414,2.0274 -1.31899,-0.6057 -2.67286,-1.2907 -3.9414,-2.0274 z m -19.40625,1.6016 c -0.36602,0.3548 -0.77003,0.7087 -1.20703,1.0586 0.43743,-0.3503 0.84072,-0.7034 1.20703,-1.0586 z m -1.20703,1.0586 c -0.87401,0.6998 -1.87694,1.3883 -2.95313,2.0586 1.07617,-0.6703 2.07913,-1.3588 2.95313,-2.0586 z m 24.55664,-0.6328 c 1.75866,0.8074 3.4541,1.4755 4.80273,1.9414 -1.34885,-0.4661 -3.04409,-1.1339 -4.80273,-1.9414 z m 4.80468,1.9414 c 1.01084,0.3491 1.82664,0.5856 2.32618,0.6816 -0.50003,-0.096 -1.31539,-0.3324 -2.32618,-0.6816 z m 2.7168,0.7305 c 0.36759,0 1.5086,0.2366 2.90625,0.6425 -1.39759,-0.4058 -2.53866,-0.6425 -2.90625,-0.6425 z m 5.13086,1.3691 c 0.76249,0.2786 1.52378,0.5908 2.2207,0.9277 -0.69645,-0.3366 -1.45881,-0.6493 -2.2207,-0.9277 z m -34.33984,1.125 c -0.15466,0.01 -0.32577,0.05 -0.51172,0.1191 0.27892,-0.1039 0.52242,-0.1436 0.73047,-0.1054 -0.0688,-0.013 -0.14211,-0.018 -0.21875,-0.014 z m 37.55078,0.3262 c 0.76828,0.449 1.38565,0.9313 1.72461,1.4277 -0.33897,-0.4971 -0.95507,-0.9781 -1.72461,-1.4277 z m -34.07227,1.3457 c 0.22974,0.245 0.44431,0.5426 0.63672,0.914 -0.19242,-0.3714 -0.40697,-0.669 -0.63672,-0.914 z m 0.90821,1.5293 c 0.16853,0.4484 0.31259,0.9794 0.42382,1.6113 -0.11128,-0.6328 -0.2551,-1.1624 -0.42382,-1.6113 z m 0.42382,1.6133 c 0.11129,0.6327 0.19003,1.3658 0.23047,2.2207 -0.0404,-0.8541 -0.11934,-1.5884 -0.23047,-2.2207 z m 6.87696,11.1933 c 0.0306,2.543 0.21108,5.2977 0.23047,7.7481 -0.0192,-2.4506 -0.19984,-5.2051 -0.23047,-7.7481 z m 0.23047,7.7481 c 0.01,1.2252 -0.0214,2.3745 -0.13086,3.3828 0.1096,-1.0084 0.14043,-2.1576 0.13086,-3.3828 z m -5.91407,-1.0704 c 0.16433,1.171 0.35245,2.2811 0.56641,3.2872 -0.21412,-1.0066 -0.40199,-2.1155 -0.56641,-3.2872 z m 0.56641,3.2891 c 0.21412,1.0066 0.45346,1.9078 0.7207,2.6641 -0.26707,-0.7558 -0.50669,-1.6583 -0.7207,-2.6641 z m 3.30273,5.0078 c -0.0967,0.031 -0.19905,0.056 -0.30468,0.072 0.10653,-0.016 0.20717,-0.041 0.30468,-0.072 z"
     id="path4235-3"
     inkscape:connector-curvature="0" />
  <path
     style="fill:#000000;fill-opacity:1;fill-rule:evenodd;stroke:none;stroke-width:0.73472148px;stroke-linecap:butt;stroke-linejoin:miter;stroke-opacity:1"
     d="m 271.429,613.54753 c -21.6398,15.57622 -24.27291,12.43958 -27.28116,16.5783 -0.59743,0.82195 0.59326,1.82903 1.77015,1.94582 2.79627,0.27751 7.23971,-2.99169 12.39106,-4.8256 2.56957,-0.91479 8.95488,-3.1133 9.37139,2.33497 0.47523,6.21647 1.4706,9.68296 -8.74664,15.41083 -2.49903,1.40098 -15.31239,4.52297 -16.24373,5.91528 -1.14539,1.7123 -0.0785,3.47225 3.95682,2.80197 2.81141,-0.46701 18.95101,-6.38227 18.95101,-6.38227 2.02716,1.49585 3.54031,11.05222 -0.31237,14.08768 -5.96166,4.6971 -18.84691,8.48374 -19.88816,10.66306 -1.04127,2.17931 7.83602,-0.39234 10.41264,-1.08965 7.43641,-2.01255 9.57964,-4.12514 12.59932,-3.19115 1.73185,0.53567 3.51964,9.24792 -0.83301,13.3872 -3.82634,3.63875 -17.59739,7.08276 -17.59739,8.17241 0,1.08965 1.94197,1.37514 4.37331,1.24531 7.28887,-0.38915 12.49519,-5.7596 14.16121,-5.13693 1.66603,0.62265 3.9568,0.31133 3.9568,5.29262 0,4.98127 0.93091,27.63211 3.54031,27.63211 3.1238,10e-6 2.15196,-5.26573 2.08253,-9.57339 -0.0627,-3.89134 -1.87428,-24.59667 2.29079,-24.12967 4.16506,0.46699 17.2149,4.4719 19.78403,3.5803 5.8311,-2.02365 -5.93521,-4.43646 -7.18473,-4.43646 -1.24952,0 -11.11381,-2.6844 -14.05708,-5.5261 -2.49903,-2.41282 -4.26918,-11.36354 -2.91554,-11.36354 3.5403,0 17.08482,4.49064 20.4088,5.13694 2.57207,0.50009 4.37332,-0.31133 3.74855,-1.71232 -0.62476,-1.40098 -8.92831,-2.90879 -14.47358,-5.2926 -3.22937,-1.38826 -8.06739,-3.86178 -10.20441,-5.68179 -2.9883,-2.54503 -2.40253,-9.53622 -0.20824,-10.11822 3.22792,-0.85616 14.36945,5.75961 21.45006,6.6936 3.24266,0.42773 4.72049,-1.15756 2.18665,-2.33497 -6.34964,-2.95055 -17.80563,-6.14879 -23.11608,-13.93203 -2.27075,-3.32812 -4.74739,-19.81163 -2.08254,-19.14679 0,0 5.937,4.30574 10.82916,5.68177 4.74967,1.33594 11.45392,1.16748 11.45392,1.16748 -0.14627,-1.7097 -1.69809,-2.35845 -7.70536,-3.42462 -5.17418,-0.91832 -9.16313,-4.2808 -11.76629,-6.92709 -1.72714,-1.75578 -4.22751,-4.13207 -5.1022,-3.50246 z"
     id="path4235-3-6"
     inkscape:connector-curvature="0"
     sodipodi:nodetypes="sssssssssssssssssssssssssssssssssssssss" />
  <path
     style="fill:#000000;fill-opacity:1;stroke:none"
     d="m 132.12373,357.05366 c -0.3007,-0.48653 -0.7916,-5.75333 -1.0908,-11.704 -0.3707,-7.37324 -0.9276,-11.13778 -1.7485,-11.81904 -0.9148,-0.75921 -2.7759,-0.22217 -7.7374,2.23271 -3.5931,1.77781 -7.1866,3.71141 -7.9855,4.29689 -1.8961,1.38944 -4.3974,0.39162 -4.3974,-1.75421 0,-2.22274 1.9924,-3.88663 8.628,-7.20541 5.5824,-2.79203 10.622,-7.59838 12.1323,-11.57089 0.4619,-1.21474 0.8397,-6.38515 0.8397,-11.48982 0,-11.61356 -0.6073,-12.39236 -7.0989,-9.1028 -4.499,2.27978 -7.3011,2.91112 -7.3011,1.64499 0,-0.36091 3.3413,-4.08263 7.425,-8.2705 4.0838,-4.18786 6.6386,-7.03132 5.6773,-6.3188 -0.9613,0.71252 -1.463,0.82057 -1.1149,0.24011 2.4891,-4.15097 2.363,-20.50891 -0.1777,-23.04135 -0.8742,-0.87145 -2.2178,-0.48867 -6.3945,1.82174 -5.3275,2.94697 -8.4676,3.6391 -9.4318,2.07895 -0.5678,-0.91864 -0.4329,-1.05137 6.3734,-6.27403 2.5337,-1.94418 5.5121,-4.99966 6.6186,-6.78997 1.7386,-2.81322 2.2128,-3.09795 3.4932,-2.09752 1.3198,1.03129 1.3478,0.98703 0.2559,-0.40574 -0.7331,-0.93527 -0.9974,-2.47192 -0.6578,-3.825 0.4354,-1.73494 1.1401,-2.25545 3.0255,-2.23492 2.0569,0.0224 2.9717,0.92693 5.6078,5.54537 2.086,3.65448 5.0501,7.0441 8.775,10.03473 5.5467,4.45319 7.0209,6.89313 4.1648,6.89313 -1.2553,0 -1.289,-0.221 -0.2405,-1.575 1.1564,-1.49321 1.1252,-1.49484 -0.601,-0.0314 -1.6107,1.36558 -2.102,1.39769 -4.2595,0.27837 -1.3413,-0.69584 -2.4388,-1.07633 -2.4388,-0.84548 0,0.23086 -1.2526,-0.22802 -2.7836,-1.01973 -1.531,-0.79172 -3.0038,-1.21926 -3.273,-0.95012 -0.2691,0.26916 -0.9403,4.24777 -1.4913,8.84137 -0.5512,4.5936 -1.3652,8.9595 -1.8091,9.702 -0.6437,1.07684 -0.5702,1.13082 0.3632,0.26677 0.9343,-0.86476 1.6783,-0.28229 3.6888,2.88799 2.6216,4.1339 8.2077,8.73385 13.1076,10.79368 2.9483,1.23942 5.3942,4.47649 4.0229,5.32405 -0.4287,0.26495 -3.5686,-0.35342 -6.9775,-1.37416 -8.8076,-2.63732 -10.4574,-2.62239 -11.2302,0.10167 -1.0044,3.54031 -0.9055,14.48859 0.1666,18.45 1.2255,4.52841 6.6261,10.26893 14.5406,15.45586 3.3413,2.18974 6.075,4.36673 6.075,4.83774 0,0.47102 -1.9425,0.8564 -4.3167,0.8564 -3.357,0 -5.3949,-0.67983 -9.1664,-3.05787 -2.6674,-1.68183 -5.3895,-2.85077 -6.0491,-2.59767 -0.9255,0.35515 -1.1443,2.90915 -0.9585,11.18716 0.1962,8.74044 -0.01,10.88564 -1.1093,11.58388 -1.7298,1.09807 -2.4618,1.09804 -3.1404,-1.3e-4 z m 9.4404,-93.02589 c 0,-0.17078 -0.9112,-1.08203 -2.025,-2.025 l -2.025,-1.71449 1.7145,2.025 c 1.6112,1.903 2.3355,2.43472 2.3355,1.71449 z m -7.2,-7.2 c 0,-0.17078 -0.9112,-1.08203 -2.025,-2.025 l -2.025,-1.71449 1.7145,2.025 c 1.6112,1.903 2.3355,2.43472 2.3355,1.71449 z"
     id="path4232-7"
     inkscape:connector-curvature="0"
     sodipodi:nodetypes="ssssssssssssssssssssssssssscsscssssssssssssscsccsscsssccssc" />
  <path
     style="fill:#000000;fill-opacity:1;stroke:none"
     d="m 756.08742,270.49168 c -0.69043,-0.84248 -1.64376,-5.19877 -2.11847,-9.68062 l -0.86312,-8.14884 -11.55213,-13.33651 c -6.35367,-7.33508 -12.59798,-14.58137 -13.87627,-16.10288 -1.27827,-1.52149 -5.89674,-5.42723 -10.26327,-8.6794 -6.79645,-5.062 -9.36851,-7.84509 -9.36851,-10.1372 0,-0.27454 0.83436,-0.49918 1.85412,-0.49918 3.0947,0 17.56218,12.50777 27.9785,24.18865 12.11275,13.58323 15.3289,16.24028 16.81546,13.89226 0.58331,-0.92136 1.0688,-3.57502 1.07885,-5.89701 0.0155,-3.58232 -1.34923,-5.75204 -9.00939,-14.32356 -10.15559,-11.36387 -35.13665,-43.61927 -35.13665,-45.36824 0,-0.62658 1.04612,-1.13923 2.32471,-1.13923 1.56501,0 5.82056,4.58332 13.02217,14.02516 11.49395,15.06942 22.24361,27.7958 24.70326,29.24583 0.83696,0.49342 2.29981,0.59857 3.25077,0.23365 1.36818,-0.52503 1.60455,-2.45598 1.13253,-9.25253 -0.50302,-7.24316 -1.14075,-9.2437 -4.0698,-12.76677 -1.91031,-2.29773 -6.98963,-8.47477 -11.28738,-13.72674 -4.29774,-5.25198 -9.37526,-10.79653 -11.28338,-12.32122 -4.05367,-3.23912 -4.66896,-7.37368 -1.09731,-7.37368 1.51709,0 5.06628,3.32337 9.84745,9.22083 12.79362,15.78069 16.2234,19.09958 17.60833,17.03903 0.66185,-0.98474 1.03086,-5.01324 0.82003,-8.95222 -0.36498,-6.81885 -0.79071,-7.69323 -8.89107,-18.2604 -7.84255,-10.23085 -9.64,-14.70921 -5.81344,-14.48421 0.75038,0.0442 4.22253,3.54355 7.71589,7.77652 3.49334,4.23295 6.85043,7.38796 7.46019,7.0111 0.60974,-0.37684 1.10863,-2.42601 1.10863,-4.55371 0,-3.67193 1.73661,-6.73324 3.81961,-6.73324 0.5252,0 0.95491,3.52174 0.95491,7.82609 l 0,7.82606 3.65423,-2.15632 c 2.00984,-1.18599 7.41459,-5.58744 12.01057,-9.781 6.03863,-5.50988 8.71773,-7.26324 9.65936,-6.32161 1.89522,1.89521 -2.83543,7.59748 -14.88323,17.93998 -11.21367,9.62645 -12.82819,12.14013 -12.82819,19.97252 0,6.69879 2.39622,8.01268 6.93463,3.80232 3.59228,-3.33261 26.13907,-17.6227 27.80497,-17.6227 0.58811,0 1.0693,1.04295 1.0693,2.31769 0,1.66027 -3.92949,4.79201 -13.85359,11.04107 -15.27548,9.61873 -21.89255,15.90319 -22.07096,20.96154 -0.16605,4.70767 0.26658,12.76076 0.70989,13.21452 0.67211,0.68791 7.99212,-3.51176 21.44977,-12.30623 30.65912,-20.03552 36.44387,-23.09206 36.44387,-19.25625 0,2.13282 -4.85444,5.72932 -20.29172,15.03345 -14.95929,9.01607 -30.37807,19.47723 -34.91368,23.68783 -2.63145,2.44288 -3.28248,4.09946 -3.28248,8.35244 l 0,5.3052 4.47611,-0.60147 c 2.46186,-0.33081 9.22936,-2.81863 15.03889,-5.52851 5.80955,-2.70986 10.77767,-4.92703 11.0403,-4.92703 0.26262,0 5.36649,-2.41515 11.34193,-5.36701 10.69704,-5.28432 13.00976,-5.70073 13.00976,-2.34237 0,1.75541 -22.40516,12.97678 -42.73556,21.40359 -6.10703,2.53133 -11.63003,5.58586 -12.2733,6.78785 -0.64328,1.20198 -1.01781,6.29478 -0.83228,11.31732 0.33602,9.09648 -0.81212,11.85861 -3.54381,8.52539 z"
     id="path4232-5"
     inkscape:connector-curvature="0"
     sodipodi:nodetypes="sscssssssssssssssssssssssscssssscsssssssssscssssscsssssssss" />
  <path
     style="fill:#000000;fill-opacity:1;stroke:none"
     d="m 380.58463,884.39364 c -0.52059,-0.63523 -1.2394,-3.91988 -1.59733,-7.29921 l -0.6508,-6.14424 -8.71033,-10.05576 c -4.79068,-5.53067 -9.49891,-10.99439 -10.46274,-12.14161 -0.96382,-1.14721 -4.44616,-4.09215 -7.73853,-6.54429 -5.12454,-3.81676 -7.06388,-5.91522 -7.06388,-7.64347 0,-0.20701 0.62911,-0.37639 1.39801,-0.37639 2.33341,0 13.24193,9.43089 21.09586,18.2383 9.13304,10.24179 11.55802,12.24521 12.67889,10.4748 0.43982,-0.69471 0.80588,-2.69557 0.81346,-4.44636 0.0117,-2.70108 -1.01732,-4.33705 -6.7931,-10.8 -7.65734,-8.56838 -26.49312,-32.88903 -26.49312,-34.20776 0,-0.47244 0.78878,-0.85898 1.75284,-0.85898 1.18002,0 4.38871,3.45583 9.81874,10.575 8.66647,11.36238 16.77174,20.9581 18.62632,22.05143 0.63107,0.37204 1.73406,0.45132 2.45109,0.17617 1.03161,-0.39587 1.20983,-1.85181 0.85393,-6.97643 -0.37928,-5.46136 -0.86013,-6.96977 -3.06864,-9.62617 -1.44038,-1.7325 -5.2702,-6.39 -8.51071,-10.35 -3.24051,-3.96 -7.06897,-8.14061 -8.5077,-9.29023 -3.05647,-2.4423 -3.5204,-5.55977 -0.82737,-5.55977 1.14389,0 3.81999,2.50583 7.425,6.95253 9.64642,11.89868 12.23248,14.40113 13.27672,12.84747 0.49904,-0.7425 0.77727,-3.78 0.61831,-6.75 -0.2752,-5.14143 -0.5962,-5.80071 -6.70389,-13.76838 -5.9133,-7.71409 -7.26858,-11.09078 -4.38335,-10.92113 0.56579,0.0333 3.1838,2.67184 5.8178,5.86351 2.63399,3.19166 5.16524,5.57054 5.625,5.28639 0.45975,-0.28414 0.83591,-1.82922 0.83591,-3.43351 0,-2.76864 1.30941,-5.07688 2.88,-5.07688 0.396,0 0.72,2.6554 0.72,5.90089 l 0,5.90087 2.7553,-1.62587 c 1.51542,-0.89424 5.59062,-4.21294 9.056,-7.3749 4.55314,-4.15446 6.57319,-5.4765 7.28318,-4.76651 1.429,1.429 -2.13792,5.72852 -11.22199,13.52679 -8.45514,7.25837 -9.67249,9.15369 -9.67249,15.05933 0,5.0509 1.80676,6.04158 5.22873,2.86696 2.70859,-2.5128 19.70892,-13.28756 20.96501,-13.28756 0.44344,0 0.80626,0.78639 0.80626,1.74754 0,1.25185 -2.96285,3.61319 -10.44564,8.325 -11.51775,7.25254 -16.50704,11.99104 -16.64156,15.80505 -0.1252,3.54959 0.201,9.62164 0.53526,9.96378 0.50677,0.51868 6.02608,-2.64788 16.17318,-9.27893 23.11705,-15.10683 27.47876,-17.41147 27.47876,-14.51926 0,1.60815 -3.66026,4.31992 -15.3,11.33526 -11.27934,6.79814 -22.90514,14.68588 -26.325,17.86068 -1.98412,1.84194 -2.475,3.091 -2.475,6.29776 l 0,4.00013 3.375,-0.45351 c 1.85625,-0.24943 6.95896,-2.12525 11.33936,-4.16851 4.38041,-2.04324 8.12639,-3.71499 8.32441,-3.71499 0.19802,0 4.04635,-1.82103 8.55184,-4.04674 8.0656,-3.98439 9.80939,-4.29836 9.80939,-1.76615 0,1.32358 -16.89354,9.78452 -32.22271,16.13836 -4.60472,1.90863 -8.76907,4.21175 -9.2541,5.11805 -0.48503,0.9063 -0.76743,4.74628 -0.62754,8.53329 0.25336,6.85877 -0.61234,8.94142 -2.67204,6.42816 z"
     id="path4232-3"
     inkscape:connector-curvature="0"
     sodipodi:nodetypes="sscssssssssssssssssssssssscssssscsssssssssscssssscsssssssss" />
  <path
     style="fill:#000000;fill-opacity:1;stroke:none"
     d="m 964.04908,925.80705 c -0.39706,-0.4845 -0.94532,-2.98978 -1.21832,-5.56727 l -0.49638,-4.68636 -6.64357,-7.66976 c -3.65396,-4.21837 -7.24503,-8.38567 -7.98017,-9.26068 -0.73513,-0.87501 -3.39119,-3.12118 -5.90236,-4.99148 -3.9086,-2.91114 -5.38778,-4.51168 -5.38778,-5.82986 0,-0.15789 0.47984,-0.28708 1.06629,-0.28708 1.77975,0 10.09993,7.19316 16.0903,13.91078 6.96598,7.81164 8.81557,9.3397 9.67049,7.98937 0.33546,-0.52987 0.61466,-2.05598 0.62044,-3.39134 0.009,-2.06018 -0.77593,-3.30797 -5.18125,-8.23741 -5.84043,-6.53531 -20.20692,-25.08523 -20.20692,-26.09105 0,-0.36034 0.60162,-0.65517 1.33693,-0.65517 0.90003,0 3.34737,2.63585 7.48898,8.0658 6.61012,8.66635 12.7922,15.98523 14.20673,16.81914 0.48133,0.28376 1.32261,0.34423 1.8695,0.13436 0.78683,-0.30193 0.92277,-1.41241 0.65131,-5.32108 -0.28928,-4.16551 -0.65604,-5.316 -2.34052,-7.3421 -1.09861,-1.32142 -4.0197,-4.8738 -6.49131,-7.89419 -2.47162,-3.02038 -5.39167,-6.20903 -6.48902,-7.08587 -2.33124,-1.8628 -2.68509,-4.24056 -0.63106,-4.24056 0.87247,0 2.9136,1.91125 5.66322,5.30285 7.35755,9.0754 9.33,10.98408 10.12646,9.79906 0.38063,-0.56632 0.59284,-2.88309 0.4716,-5.14838 -0.2099,-3.92148 -0.45473,-4.42433 -5.11321,-10.50146 -4.51021,-5.88371 -5.54391,-8.45919 -3.34328,-8.3298 0.43154,0.0254 2.42835,2.03788 4.43737,4.47224 2.009,2.43435 3.93965,4.24878 4.29031,4.03205 0.35067,-0.21672 0.63757,-1.39519 0.63757,-2.61882 0,-2.1117 0.99872,-3.87225 2.19665,-3.87225 0.30203,0 0.54916,2.02533 0.54916,4.50074 l 0,4.50073 2.10154,-1.24009 c 1.15583,-0.68205 4.26408,-3.2133 6.90722,-5.625 3.47272,-3.1687 5.01352,-4.17705 5.55502,-3.63553 1.09,1.08993 -1.6307,4.36928 -8.55923,10.3172 -6.44895,5.53612 -7.37746,6.98173 -7.37746,11.48609 0,3.85244 1.37806,4.60806 3.98807,2.1867 2.06591,-1.91657 15.03242,-10.13473 15.99052,-10.13473 0.3382,0 0.615,0.5998 0.615,1.33289 0,0.95482 -2.2599,2.75586 -7.9672,6.34967 -8.78484,5.53168 -12.59029,9.14584 -12.6929,12.05488 -0.0955,2.70735 0.15331,7.33864 0.40826,7.5996 0.38653,0.39561 4.59622,-2.0196 12.33564,-7.07725 17.6319,-11.52233 20.95868,-13.28013 20.95868,-11.07418 0,1.22658 -2.79178,3.29491 -11.66958,8.64567 -8.6031,5.1851 -17.47037,11.20126 -20.07873,13.62275 -1.51335,1.40489 -1.88776,2.35758 -1.88776,4.80345 l 0,3.05099 2.57421,-0.3459 c 1.41577,-0.19025 5.30771,-1.62098 8.64875,-3.17942 3.34113,-1.55843 6.19823,-2.83351 6.34933,-2.83351 0.151,0 3.0862,-1.38894 6.5226,-3.08654 6.1518,-3.03899 7.4819,-3.27846 7.4819,-1.34709 0,1.00953 -12.8852,7.46288 -24.57703,12.3091 -3.51211,1.45576 -6.6884,3.2124 -7.05834,3.90366 -0.36994,0.69125 -0.58534,3.6201 -0.47864,6.50854 0.19324,5.23134 -0.46705,6.81982 -2.03803,4.9029 z"
     id="path4232-3-5"
     inkscape:connector-curvature="0"
     sodipodi:nodetypes="sscssssssssssssssssssssssscssssscsssssssssscssssscsssssssss" />
  <path
     style="fill:#000000;fill-opacity:1;stroke:none"
     d="m 743.09694,1085.5908 c -0.52059,-0.6352 -1.2394,-3.9199 -1.59733,-7.2992 l -0.6508,-6.1442 -8.71033,-10.0558 c -4.79068,-5.5307 -9.49891,-10.9944 -10.46274,-12.1416 -0.96382,-1.1472 -4.44616,-4.0922 -7.73853,-6.5443 -5.12454,-3.8168 -7.06388,-5.9152 -7.06388,-7.6435 0,-0.207 0.62911,-0.3764 1.39801,-0.3764 2.33341,0 13.24193,9.4309 21.09586,18.2383 9.13304,10.2418 11.55802,12.2452 12.67889,10.4748 0.43982,-0.6947 0.80588,-2.6955 0.81346,-4.4463 0.0117,-2.7011 -1.01732,-4.3371 -6.7931,-10.8 -7.65734,-8.5684 -26.49312,-32.8891 -26.49312,-34.2078 0,-0.4724 0.78878,-0.859 1.75284,-0.859 1.18002,0 4.38871,3.4558 9.81874,10.575 8.66647,11.3624 16.77174,20.9581 18.62632,22.0515 0.63107,0.372 1.73406,0.4513 2.45109,0.1761 1.03161,-0.3958 1.20983,-1.8518 0.85393,-6.9764 -0.37928,-5.4614 -0.86013,-6.9698 -3.06864,-9.6262 -1.44038,-1.7325 -5.2702,-6.39 -8.51071,-10.35 -3.24051,-3.96 -7.06897,-8.1406 -8.5077,-9.2902 -3.05647,-2.4423 -3.5204,-5.5598 -0.82737,-5.5598 1.14389,0 3.81999,2.5058 7.425,6.9525 9.64642,11.8987 12.23248,14.4012 13.27672,12.8475 0.49904,-0.7425 0.77727,-3.78 0.61831,-6.75 -0.2752,-5.1414 -0.5962,-5.8007 -6.70389,-13.7684 -5.9133,-7.71405 -7.26858,-11.09074 -4.38335,-10.92109 0.56579,0.0333 3.1838,2.67184 5.8178,5.86351 2.63399,3.19168 5.16524,5.57058 5.625,5.28638 0.45975,-0.2841 0.83591,-1.8292 0.83591,-3.4335 0,-2.76864 1.30941,-5.07688 2.88,-5.07688 0.396,0 0.72,2.6554 0.72,5.90088 l 0,5.9009 2.7553,-1.6259 c 1.51542,-0.8942 5.59062,-4.2129 9.056,-7.37489 4.55314,-4.15446 6.57319,-5.4765 7.28318,-4.76651 1.429,1.429 -2.13792,5.72852 -11.22199,13.5268 -8.45514,7.2584 -9.67249,9.1537 -9.67249,15.0593 0,5.0509 1.80676,6.0416 5.22873,2.867 2.70859,-2.5128 19.70892,-13.2876 20.96501,-13.2876 0.44344,0 0.80626,0.7864 0.80626,1.7476 0,1.2518 -2.96285,3.6131 -10.44564,8.325 -11.51775,7.2525 -16.50704,11.991 -16.64156,15.805 -0.1252,3.5496 0.201,9.6217 0.53526,9.9638 0.50677,0.5187 6.02608,-2.6479 16.17318,-9.2789 23.11705,-15.1069 27.47876,-17.4115 27.47876,-14.5193 0,1.6081 -3.66026,4.3199 -15.3,11.3353 -11.27934,6.7981 -22.90514,14.6859 -26.325,17.8607 -1.98412,1.8419 -2.475,3.091 -2.475,6.2977 l 0,4.0001 3.375,-0.4535 c 1.85625,-0.2494 6.95896,-2.1252 11.33936,-4.1685 4.38041,-2.0432 8.12639,-3.715 8.32441,-3.715 0.19802,0 4.04635,-1.821 8.55184,-4.0467 8.0656,-3.9844 9.80939,-4.2984 9.80939,-1.7662 0,1.3236 -16.89354,9.7846 -32.22271,16.1384 -4.60472,1.9086 -8.76907,4.2118 -9.2541,5.1181 -0.48503,0.9063 -0.76743,4.7462 -0.62754,8.5332 0.25336,6.8588 -0.61234,8.9415 -2.67204,6.4282 z"
     id="path4232-3-6"
     inkscape:connector-curvature="0"
     sodipodi:nodetypes="sscssssssssssssssssssssssscssssscsssssssssscssssscsssssssss" />
  <path
     style="fill:#000000;fill-opacity:1;stroke:none"
     d="m 651.56517,702.09223 c -0.75226,-0.62191 -1.79096,-3.83767 -2.30818,-7.14613 l -0.94043,-6.01538 -12.58666,-9.84486 c -6.92266,-5.41468 -13.72618,-10.76381 -15.11894,-11.88697 -1.39275,-1.12315 -6.42483,-4.00633 -11.18239,-6.40704 -7.4051,-3.73671 -10.2075,-5.79116 -10.2075,-7.48317 0,-0.20267 0.90908,-0.36849 2.02016,-0.36849 3.37184,0 19.13495,9.2331 30.48409,17.85579 13.1975,10.027 16.70166,11.9884 18.32134,10.25512 0.63556,-0.68014 1.16452,-2.63904 1.17548,-4.35311 0.0169,-2.64443 -1.47006,-4.24609 -9.81622,-10.5735 -11.06506,-8.38868 -38.28328,-32.19926 -38.28328,-33.49033 0,-0.46253 1.13981,-0.84097 2.5329,-0.84097 1.70517,0 6.34181,3.38335 14.18835,10.35322 12.52329,11.12408 24.23562,20.51855 26.91554,21.58895 0.91191,0.36424 2.50576,0.44186 3.54189,0.17248 1.49071,-0.38757 1.74824,-1.81297 1.23395,-6.83012 -0.54807,-5.34682 -1.24291,-6.82359 -4.43426,-9.42428 -2.08139,-1.69617 -7.61559,-6.25599 -12.29821,-10.13294 -4.68263,-3.87695 -10.21486,-7.96988 -12.29386,-9.09539 -4.41668,-2.39108 -5.08707,-5.44317 -1.19557,-5.44317 1.65295,0 5.51999,2.45328 10.72933,6.80672 13.93933,11.64914 17.67626,14.0991 19.18522,12.57803 0.72112,-0.72693 1.12317,-3.70072 0.89347,-6.60844 -0.39767,-5.0336 -0.86152,-5.67905 -9.6873,-13.47962 -8.54488,-7.55231 -10.5033,-10.85818 -6.33406,-10.69209 0.81758,0.0326 4.60068,2.61581 8.40688,5.74054 3.80618,3.12472 7.46391,5.45371 8.12828,5.17552 0.66435,-0.27818 1.20791,-1.79085 1.20791,-3.3615 0,-2.71057 1.89213,-4.9704 4.16168,-4.9704 0.57223,0 1.04042,2.59971 1.04042,5.77713 l 0,5.77711 3.98148,-1.59177 c 2.18982,-0.87548 8.0786,-4.12458 13.08617,-7.22023 6.57941,-4.06733 9.49843,-5.36164 10.52439,-4.66654 2.06494,1.39903 -3.08935,5.60838 -16.21608,13.2431 -12.21791,7.10614 -13.97701,8.96171 -13.97701,14.7435 0,4.94497 2.61081,5.91487 7.55565,2.80683 3.91399,-2.4601 28.47993,-13.00889 30.29501,-13.00889 0.64079,0 1.16507,0.7699 1.16507,1.71089 0,1.2256 -4.2814,3.53741 -15.09423,8.15041 -16.64346,7.10043 -23.85312,11.73955 -24.04751,15.47357 -0.18092,3.47515 0.29045,9.41985 0.77347,9.75482 0.73229,0.5078 8.70785,-2.59235 23.37068,-9.08433 33.40477,-14.79 39.70756,-17.04631 39.70756,-14.21475 0,1.57442 -5.28918,4.22932 -22.10892,11.09753 -16.29895,6.65556 -33.09855,14.37788 -38.04034,17.48609 -2.86711,1.80331 -3.57644,3.02618 -3.57644,6.16568 l 0,3.91624 4.87696,-0.444 c 2.68234,-0.2442 10.05589,-2.08067 16.38569,-4.08108 6.32981,-2.00039 11.74285,-3.63708 12.029,-3.63708 0.28614,0 5.84708,-1.78284 12.35764,-3.96187 11.65501,-3.90083 14.17483,-4.20821 14.17483,-1.72911 0,1.29582 -24.41162,9.57931 -46.56269,15.7999 -6.65394,1.8686 -12.67154,4.12342 -13.37243,5.01071 -0.70088,0.88729 -1.10895,4.64674 -0.90681,8.35433 0.36611,6.71492 -0.88485,8.75389 -3.86117,6.29334 z"
     id="path4232-3-2"
     inkscape:connector-curvature="0"
     sodipodi:nodetypes="sscssssssssssssssssssssssscssssscsssssssssscssssscsssssssss" />
  <path
     style="fill:#000000;fill-opacity:1;stroke:none"
     d="m 987.79641,1118.9634 c -0.28605,-0.8749 0.29562,-4.5984 1.29291,-8.2744 l 1.81316,-6.6836 -5.02032,-14.0406 c -2.76121,-7.7223 -5.46342,-15.3413 -6.0049,-16.9311 -0.54151,-1.5896 -2.98494,-6.0794 -5.42981,-9.9775 -3.80547,-6.067 -4.9802,-9.0464 -4.27896,-10.8521 0.0839,-0.2163 0.81002,-0.1379 1.61338,0.174 2.43795,0.9469 10.0085,15.2266 14.64061,27.6154 5.38649,14.4065 7.10721,17.4836 8.99666,16.0888 0.74139,-0.5475 1.93578,-2.4894 2.65413,-4.3156 1.10855,-2.8173 0.69681,-4.9442 -2.71526,-14.0403 -4.52368,-12.0593 -14.33497,-45.1125 -13.7999,-46.4902 0.19173,-0.4937 1.17268,-0.5774 2.17992,-0.1863 1.23289,0.4789 3.18311,5.3915 5.96772,15.0329 4.44433,15.388 9.01916,28.7025 10.51325,30.5972 0.5083,0.6448 1.6286,1.1752 2.4893,1.1787 1.2385,0 2.0156,-1.4439 3.7231,-6.9424 1.8197,-5.8601 1.9293,-7.6312 0.6998,-11.3027 -0.802,-2.3945 -2.9136,-8.8148 -4.6924,-14.267 -1.7789,-5.4523 -4.08255,-11.3736 -5.11927,-13.1586 -2.20242,-3.792 -1.42218,-7.2374 1.39152,-6.1446 1.19514,0.4642 2.97435,4.168 4.93665,10.2768 5.2505,16.3459 6.937,20.0098 8.6585,18.8103 0.8227,-0.5733 2.3459,-3.6339 3.3849,-6.8015 1.7987,-5.4835 1.7308,-6.3026 -1.4175,-17.1056 -3.0482,-10.459 -3.0941,-14.5369 -0.1484,-13.1889 0.5778,0.264 2.2423,4.0833 3.6993,8.4868 1.4569,4.4034 3.1364,7.916 3.7319,7.8057 0.5957,-0.1109 1.6155,-1.5719 2.2665,-3.2481 1.1234,-2.8928 3.4281,-4.7731 5.0691,-4.1358 0.4138,0.1606 -0.3252,3.0665 -1.6421,6.4574 l -2.3944,6.1652 3.5385,-0.5806 c 1.9463,-0.3195 7.5507,-2.1333 12.4542,-4.0307 6.443,-2.4932 9.0898,-3.0548 9.5435,-2.0249 0.9133,2.0728 -4.558,5.1177 -17.2133,9.5794 -11.7792,4.1527 -13.8201,5.639 -16.2164,11.8092 -2.0496,5.2772 -0.5638,7.0455 4.2997,5.1171 3.8496,-1.5264 25.9835,-5.8857 27.2959,-5.3761 0.4632,0.1799 0.5232,1.1487 0.1333,2.153 -0.508,1.3079 -4.5617,2.5729 -14.2916,4.4596 -14.9766,2.9039 -22.1121,5.8303 -23.8004,9.7606 -1.571,3.6578 -3.694,10.1342 -3.4836,10.6274 0.3191,0.7474 7.3706,-0.3214 20.6629,-3.1322 30.2825,-6.4036 35.7748,-7.0417 34.6013,-4.02 -0.6526,1.6803 -5.5772,3.0284 -20.585,5.635 -14.5431,2.526 -29.8904,6.0498 -34.7516,7.9792 -2.8204,1.1194 -3.8402,2.2252 -5.1414,5.5757 l -1.623,4.1793 3.7102,0.8957 c 2.0406,0.4926 8.1331,0.6031 13.5389,0.2458 5.4057,-0.3575 9.9979,-0.5841 10.2048,-0.5037 0.2068,0.081 4.9665,-0.2607 10.5769,-0.7582 10.0436,-0.89 11.993,-0.5105 10.9655,2.1351 -0.5371,1.3829 -21.6205,3.3681 -40.2148,3.7867 -5.5854,0.1257 -10.87077,0.8423 -11.74534,1.5924 -0.87447,0.7501 -2.72765,4.6475 -4.1181,8.661 -2.51841,7.2689 -4.26793,9.0935 -5.40015,5.6319 z"
     id="path4232-3-9"
     inkscape:connector-curvature="0"
     sodipodi:nodetypes="sscssssssssssssssssssssssscssssscsssssssssscssssscsssssssss" />
  <path
     style="fill:#000000;fill-opacity:1;stroke:none"
     d="m 131.33235,782.18042 c -0.43308,-0.37359 -2.48499,-5.24902 -4.55971,-10.83431 -2.57068,-6.92053 -4.23381,-10.34338 -5.22157,-10.74627 -1.10076,-0.44899 -2.71424,0.62283 -6.70793,4.45602 -2.89222,2.77597 -5.73797,5.70065 -6.32384,6.49926 -1.39054,1.8953 -4.07612,1.6958 -4.72137,-0.35072 -0.66838,-2.11987 0.73147,-4.30586 6.06201,-9.46637 4.48447,-4.34145 7.84556,-10.44076 8.09143,-14.68357 0.0753,-1.29741 -1.11918,-6.34213 -2.65416,-11.21055 -3.4922,-11.07607 -4.30558,-11.63621 -9.50757,-6.54687 -3.60525,3.52712 -6.087817,4.97184 -6.468537,3.7643 -0.10853,-0.3442 1.959007,-4.89841 4.594417,-10.12043 2.6355,-5.22204 4.21703,-8.70213 3.51448,-7.73352 -0.70256,0.96861 -1.14855,1.22252 -0.9911,0.56425 1.1257,-4.70733 -3.9134,-20.27029 -7.098017,-21.92153 -1.09579,-0.56825 -2.2621,0.20084 -5.55076,3.66025 -4.19478,4.41256 -6.98143,6.01689 -8.37014,4.81888 -0.81776,-0.70538 -0.72901,-0.87254 4.19183,-7.90014 1.83182,-2.61609 3.75359,-6.42576 4.27053,-8.46594 0.8122,-3.20582 1.17884,-3.61996 2.70081,-3.05085 1.56882,0.5867 1.58222,0.53607 0.12205,-0.46391 -0.98041,-0.67154 -1.69455,-2.0576 -1.77754,-3.45017 -0.10645,-1.78557 0.40912,-2.4939 2.21344,-3.04126 1.96844,-0.59714 3.112887,-0.01 7.015757,3.60246 3.08836,2.85808 6.93453,5.19952 11.38632,6.93166 6.62907,2.5792 8.76873,4.46292 6.04482,5.32175 -1.1972,0.37747 -1.2958,0.17683 -0.70297,-1.42979 0.65387,-1.77183 0.62362,-1.764 -0.58263,0.15078 -1.12553,1.78671 -1.58443,1.96507 -3.97866,1.54632 -1.48846,-0.26031 -2.64958,-0.29317 -2.58016,-0.073 0.0694,0.22018 -1.2632,0.1592 -2.96141,-0.1355 -1.69821,-0.29471 -3.23141,-0.25959 -3.40722,0.078 -0.17571,0.33763 0.38052,4.33393 1.23632,8.88062 0.85561,4.54675 1.39211,8.95536 1.19202,9.79697 -0.2901,1.22057 -0.20377,1.24995 0.42661,0.14521 0.63103,-1.10568 1.51574,-0.77389 4.3865,1.64511 3.74333,3.15426 10.45411,5.86158 15.74663,6.35267 3.18454,0.29551 6.49063,2.64728 5.43766,3.86796 -0.32919,0.3816 -3.50972,0.73602 -7.06779,0.78758 -9.19301,0.13318 -10.76197,0.64352 -10.67988,3.47389 0.10666,3.67848 3.49314,14.09032 5.70682,17.54601 2.53047,3.95032 9.4073,7.8012 18.51522,10.36818 3.84512,1.08366 7.10692,2.33787 7.24855,2.78708 0.14164,0.44922 -1.59508,1.40088 -3.8594,2.1148 -3.20163,1.00945 -5.34964,0.97388 -9.66166,-0.16001 -3.04968,-0.8019 -5.9973,-1.0982 -6.55026,-0.65848 -0.77588,0.61702 -0.21656,3.11861 2.44984,10.95763 2.81537,8.27692 3.26378,10.38484 2.42532,11.38133 -1.31956,1.5674 -2.01769,1.78748 -2.9951,0.94419 z m -18.96944,-91.55925 c -0.0513,-0.16288 -1.19439,-0.75796 -2.5402,-1.32237 l -2.44682,-1.02622 2.24406,1.41573 c 2.10887,1.33044 2.95954,1.61975 2.74296,0.93286 z m -9.03182,-4.70174 c -0.0513,-0.16287 -1.19439,-0.75795 -2.54019,-1.32236 l -2.446827,-1.02622 2.244067,1.41573 c 2.10886,1.33044 2.95953,1.61975 2.74295,0.93285 z"
     id="path4232-7-1"
     inkscape:connector-curvature="0"
     sodipodi:nodetypes="ssssssssssssssssssssssssssscsscssssssssssssscsccsscsssccssc" />
  <path
     style="fill:#000000;fill-opacity:1;stroke:none"
     d="m 590.24496,975.69729 c -0.23253,-0.3762 -0.61213,-4.4489 -0.8435,-9.0505 -0.28666,-5.7016 -0.7173,-8.6127 -1.35208,-9.1394 -0.7074,-0.5872 -2.14656,-0.1718 -5.9832,1.7265 -2.77849,1.3747 -5.55728,2.87 -6.17506,3.3227 -1.46622,1.0744 -3.40043,0.3028 -3.40043,-1.3566 0,-1.7187 1.54069,-3.0054 6.67189,-5.5718 4.31677,-2.159 8.21381,-5.87561 9.3817,-8.94751 0.35718,-0.9394 0.64932,-4.9375 0.64932,-8.8849 0,-8.9805 -0.46961,-9.5828 -5.48946,-7.0391 -3.479,1.763 -5.64581,2.2512 -5.64581,1.2721 0,-0.2791 2.58377,-3.157 5.74162,-6.3954 3.15794,-3.2385 5.13352,-5.4372 4.39016,-4.8863 -0.74335,0.551 -1.13131,0.6346 -0.86213,0.1857 1.92478,-3.2099 1.82727,-15.8592 -0.13741,-17.8175 -0.67601,-0.6739 -1.71499,-0.3778 -4.94476,1.4087 -4.11967,2.2789 -6.54785,2.8141 -7.29345,1.6076 -0.43907,-0.7103 -0.33476,-0.8129 4.92844,-4.8515 1.95927,-1.5035 4.26241,-3.86623 5.11805,-5.25061 1.34443,-2.17542 1.71112,-2.39559 2.70123,-1.62198 1.02058,0.79748 1.04223,0.76326 0.19789,-0.31375 -0.5669,-0.72323 -0.77128,-1.91149 -0.50867,-2.95781 0.33669,-1.3416 0.88162,-1.7441 2.33957,-1.72822 1.59056,0.0173 2.29796,0.71678 4.33641,4.28814 1.61307,2.82595 3.90516,5.44703 6.78556,7.75973 4.28917,3.4435 5.42915,5.3303 3.22057,5.3303 -0.9707,0 -0.99676,-0.1709 -0.18597,-1.2179 0.89422,-1.1547 0.8701,-1.156 -0.46475,-0.024 -1.24552,1.056 -1.62544,1.0808 -3.29379,0.2153 -1.03721,-0.5381 -1.88589,-0.8324 -1.88589,-0.6538 0,0.1785 -0.96861,-0.1763 -2.15251,-0.7886 -1.18389,-0.6122 -2.32278,-0.9428 -2.53095,-0.7347 -0.20809,0.2082 -0.72712,3.2847 -1.1532,6.8369 -0.42623,3.5521 -1.05569,6.9282 -1.39895,7.5024 -0.49776,0.8327 -0.44092,0.8744 0.28086,0.2063 0.72248,-0.6687 1.2978,-0.2183 2.85249,2.2332 2.02724,3.1967 6.34687,6.7537 10.13588,8.3466 2.27987,0.9584 4.17124,3.4616 3.11084,4.117 -0.33151,0.2049 -2.75954,-0.2733 -5.39558,-1.0626 -6.81077,-2.0394 -8.08653,-2.0278 -8.68412,0.079 -0.77669,2.7376 -0.70021,11.2038 0.12883,14.2671 0.94765,3.5017 5.12385,7.94081 11.24399,11.95171 2.58377,1.6933 4.6977,3.3767 4.6977,3.7409 0,0.3643 -1.5021,0.6623 -3.33803,0.6623 -2.59591,0 -4.17179,-0.5257 -7.08822,-2.3646 -2.06266,-1.3005 -4.16761,-2.2044 -4.67767,-2.0087 -0.71567,0.2746 -0.88487,2.2495 -0.74119,8.6508 0.15172,6.7589 -0.008,8.4177 -0.8578,8.9576 -1.33763,0.8492 -1.90367,0.8492 -2.42842,-10e-5 z m 7.3001,-71.93531 c 0,-0.1321 -0.70462,-0.8368 -1.5659,-1.5659 l -1.5659,-1.3258 1.3258,1.5659 c 1.24591,1.4715 1.806,1.8827 1.806,1.3258 z m -5.56764,-5.56766 c 0,-0.13207 -0.70461,-0.83677 -1.5659,-1.56591 l -1.5659,-1.32579 1.3258,1.5659 c 1.24591,1.47157 1.806,1.88272 1.806,1.3258 z"
     id="path4232-7-2"
     inkscape:connector-curvature="0"
     sodipodi:nodetypes="ssssssssssssssssssssssssssscsscssssssssssssscsccsscsssccssc" />
  <path
     style="fill:#000000;fill-opacity:1;stroke:none"
     d="m 884.03716,617.68267 c -0.28497,-0.46105 -0.75019,-5.45229 -1.03373,-11.09166 -0.35131,-6.98743 -0.87907,-10.55507 -1.65702,-11.20063 -0.86694,-0.71948 -2.63067,-0.21058 -7.33259,2.11588 -3.40511,1.68479 -6.8106,3.51723 -7.5677,4.07209 -1.7969,1.31671 -4.16733,0.37111 -4.16733,-1.66242 0,-2.1065 1.88816,-3.68335 8.17659,-6.82842 5.29033,-2.64602 10.06626,-7.20085 11.49754,-10.96552 0.43774,-1.15124 0.79577,-6.05113 0.79577,-10.88875 0,-11.00589 -0.57552,-11.74394 -6.72749,-8.62655 -4.26361,2.16052 -6.91911,2.75889 -6.91911,1.55894 0,-0.34202 3.16649,-3.86901 7.03653,-7.8378 3.87014,-3.96869 6.29127,-6.66342 5.38027,-5.9882 -0.91101,0.67532 -1.38646,0.77766 -1.05657,0.22754 2.35887,-3.93373 2.23937,-19.43589 -0.1684,-21.8358 -0.82847,-0.82585 -2.10177,-0.4631 -6.05995,1.72639 -5.04877,2.79282 -8.02458,3.44871 -8.93833,1.97023 -0.5381,-0.87063 -0.41025,-0.99639 6.03994,-5.94579 2.40114,-1.84246 5.22372,-4.73808 6.27232,-6.43472 1.64764,-2.66603 2.09703,-2.93587 3.31044,-1.98778 1.25075,0.97733 1.27729,0.93539 0.24251,-0.38451 -0.69474,-0.88634 -0.94521,-2.34259 -0.62338,-3.62488 0.41262,-1.64417 1.08045,-2.13745 2.86721,-2.11799 1.94928,0.0212 2.81622,0.87843 5.3144,5.25524 1.97686,3.46328 4.78585,6.67556 8.31588,9.50972 5.2565,4.2202 6.6536,6.53245 3.9469,6.53245 -1.1896,0 -1.2216,-0.20944 -0.2279,-1.4926 1.0959,-1.41508 1.0663,-1.41659 -0.5696,-0.0294 -1.5264,1.29415 -1.992,1.32458 -4.0366,0.26384 -1.2712,-0.6594 -2.31123,-1.01999 -2.31123,-0.80127 0,0.21882 -1.18707,-0.21607 -2.63794,-0.96635 -1.4509,-0.75028 -2.84664,-1.1555 -3.10176,-0.90039 -0.25502,0.25502 -0.8911,4.02546 -1.41327,8.37873 -0.52236,4.35327 -1.29378,8.49074 -1.71445,9.1944 -0.61002,1.02056 -0.54037,1.07173 0.3442,0.25284 0.88541,-0.81946 1.59049,-0.26753 3.4958,2.7369 2.48444,3.91762 7.77825,8.27695 12.42175,10.22898 2.7941,1.17456 5.112,4.24229 3.8125,5.04545 -0.4063,0.25114 -3.3819,-0.33491 -6.6125,-1.3022 -8.34674,-2.49932 -9.91022,-2.4852 -10.64259,0.0963 -0.95185,3.35517 -0.85813,13.73057 0.15788,17.48471 1.16138,4.29157 6.27941,9.73173 13.77981,14.64726 3.1665,2.07513 5.7572,4.13823 5.7572,4.58459 0,0.44645 -1.8409,0.81159 -4.0909,0.81159 -3.1813,0 -5.1126,-0.64423 -8.6868,-2.89781 -2.52782,-1.59391 -5.1075,-2.70165 -5.73259,-2.46179 -0.87708,0.33661 -1.08443,2.75699 -0.90835,10.60189 0.18593,8.28311 -0.009,10.31607 -1.05126,10.97774 -1.6393,1.04065 -2.333,1.04065 -2.9761,-9e-5 z m 8.94646,-88.15885 c 0,-0.16186 -0.8635,-1.02539 -1.91903,-1.91902 l -1.91905,-1.62479 1.6248,1.91905 c 1.5269,1.8034 2.21328,2.30738 2.21328,1.62476 z m -6.82328,-6.82327 c 0,-0.16185 -0.86352,-1.02542 -1.91905,-1.91905 l -1.91905,-1.62479 1.62479,1.91905 c 1.52691,1.80344 2.21331,2.30734 2.21331,1.62479 z"
     id="path4232-7-7"
     inkscape:connector-curvature="0"
     sodipodi:nodetypes="ssssssssssssssssssssssssssscsscssssssssssssscsccsscsssccssc" />
  <path
     style="fill:#000000;fill-opacity:1;fill-rule:evenodd;stroke:none;stroke-width:1px;stroke-linecap:butt;stroke-linejoin:miter;stroke-opacity:1"
     d="m 814.85797,727.44595 c -25.46421,24.52108 -28.56267,19.58318 -32.10257,26.09865 -0.70301,1.29396 0.6981,2.87935 2.08299,3.06322 3.29045,0.43687 8.51919,-4.70972 14.58094,-7.59679 3.02369,-1.44011 10.53748,-4.90115 11.0276,3.67587 0.55922,9.78635 1.7305,15.24352 -10.29243,24.26072 -2.94069,2.20552 -18.01857,7.12033 -19.1145,9.31219 -1.34782,2.69563 -0.0923,5.46625 4.6561,4.41104 3.30828,-0.73518 22.30025,-10.04737 22.30025,-10.04737 2.38542,2.35488 4.16598,17.3991 -0.36758,22.17773 -7.01526,7.39449 -22.17773,13.35564 -23.40302,16.78645 -1.22529,3.43081 9.22089,-0.61764 12.25288,-1.7154 8.75066,-3.16827 11.27266,-6.49404 14.826,-5.02369 2.03794,0.84328 4.14167,14.55866 -0.98023,21.07496 -4.50256,5.72835 -20.70738,11.15013 -20.70738,12.86553 0,1.71541 2.28518,2.16482 5.14621,1.96046 8.57703,-0.61264 14.70346,-9.06713 16.66393,-8.0869 1.96046,0.98023 4.65609,0.49012 4.65609,8.33197 0,7.84184 1.09543,22.66782 4.16599,22.66783 3.67587,10e-6 2.53227,-8.28964 2.45058,-15.07105 -0.0738,-6.126 -2.20552,-17.88921 2.69564,-17.15404 4.90115,0.73517 20.25729,7.03995 23.28048,5.63633 6.86162,-3.18575 -6.98415,-6.98415 -8.45449,-6.98415 -1.47035,0 -13.07797,-4.22595 -16.5414,-8.69955 -2.9407,-3.79839 -5.02368,-17.8892 -3.43081,-17.8892 4.16598,0 20.10423,7.06946 24.01566,8.0869 3.02664,0.78729 5.14621,-0.49011 4.41104,-2.69563 -0.73518,-2.20552 -10.50623,-4.5792 -17.03151,-8.33196 -3.8001,-2.18548 -9.49314,-6.07944 -12.00784,-8.94462 -3.51643,-4.00655 -2.82714,-15.01252 -0.24505,-15.92874 3.7984,-1.34783 16.90898,9.06713 25.24095,10.53748 3.81574,0.67336 5.55474,-1.8223 2.5731,-3.67587 -7.47182,-4.64493 -20.95243,-9.67978 -27.20141,-21.93267 -2.67206,-5.23934 -5.58639,-31.18873 -2.45058,-30.1421 0,0 6.98625,6.77838 12.743,8.9446 5.58908,2.10313 13.47818,1.83794 13.47818,1.83794 -0.17212,-2.69152 -1.99819,-3.71285 -9.06713,-5.39127 -6.08863,-1.44567 -10.78254,-6.73909 -13.84576,-10.90507 -2.03238,-2.76404 -4.97464,-6.50496 -6.00392,-5.5138 z"
     id="path4235-3-0-9"
     inkscape:connector-curvature="0"
     sodipodi:nodetypes="sssssssssssssssssssssssssssssssssssssss" />
  <path
     style="fill:#000000;fill-opacity:1;fill-rule:evenodd;stroke:none;stroke-width:1px;stroke-linecap:butt;stroke-linejoin:miter;stroke-opacity:1"
     d="m 536.47237,107.93998 c -25.46421,24.52108 -28.56267,19.58318 -32.10257,26.09865 -0.70301,1.29396 0.6981,2.87935 2.08299,3.06322 3.29045,0.43687 8.51919,-4.70972 14.58094,-7.59679 3.02369,-1.44011 10.53748,-4.90115 11.0276,3.67587 0.55922,9.78635 1.7305,15.24352 -10.29243,24.26072 -2.94069,2.20552 -18.01857,7.12033 -19.1145,9.31219 -1.34782,2.69563 -0.0923,5.46625 4.6561,4.41104 3.30828,-0.73518 22.30025,-10.04737 22.30025,-10.04737 2.38542,2.35488 4.16598,17.3991 -0.36758,22.17773 -7.01526,7.39449 -22.17773,13.35564 -23.40302,16.78645 -1.22529,3.43081 9.22089,-0.61764 12.25288,-1.7154 8.75066,-3.16827 11.27266,-6.49404 14.826,-5.02369 2.03794,0.84328 4.14167,14.55866 -0.98023,21.07496 -4.50256,5.72835 -20.70738,11.15013 -20.70738,12.86553 0,1.71541 2.28518,2.16482 5.14621,1.96046 8.57703,-0.61264 14.70346,-9.06713 16.66393,-8.0869 1.96046,0.98023 4.65609,0.49012 4.65609,8.33197 0,7.84184 1.09543,22.66782 4.16599,22.66783 3.67587,1e-5 2.53227,-8.28964 2.45058,-15.07105 -0.0738,-6.126 -2.20552,-17.88921 2.69564,-17.15404 4.90115,0.73517 20.25729,7.03995 23.28048,5.63633 6.86162,-3.18575 -6.98415,-6.98415 -8.45449,-6.98415 -1.47035,0 -13.07797,-4.22595 -16.5414,-8.69955 -2.9407,-3.79839 -5.02368,-17.8892 -3.43081,-17.8892 4.16598,0 20.10423,7.06946 24.01566,8.0869 3.02664,0.78729 5.14621,-0.49011 4.41104,-2.69563 -0.73518,-2.20552 -10.50623,-4.5792 -17.03151,-8.33196 -3.8001,-2.18548 -9.49314,-6.07944 -12.00784,-8.94462 -3.51643,-4.00655 -2.82714,-15.01252 -0.24505,-15.92874 3.7984,-1.34783 16.90898,9.06713 25.24095,10.53748 3.81574,0.67336 5.55474,-1.8223 2.5731,-3.67587 -7.47182,-4.64493 -20.95243,-9.67978 -27.20141,-21.93267 -2.67206,-5.23934 -5.58639,-31.18873 -2.45058,-30.1421 0,0 6.98625,6.77838 12.743,8.9446 5.58908,2.10313 13.47818,1.83794 13.47818,1.83794 -0.17212,-2.69152 -1.99819,-3.71285 -9.06713,-5.39127 -6.08863,-1.44567 -10.78254,-6.73909 -13.84576,-10.90507 -2.03238,-2.76404 -4.97464,-6.50496 -6.00392,-5.5138 z"
     id="path4235-3-0-3"
     inkscape:connector-curvature="0"
     sodipodi:nodetypes="sssssssssssssssssssssssssssssssssssssss" />
  <path
     style="fill:#000000;fill-opacity:1;fill-rule:evenodd;stroke:none;stroke-width:0.73472148px;stroke-linecap:butt;stroke-linejoin:miter;stroke-opacity:1"
     d="m 652.24389,405.9831 c -21.6398,15.57622 -24.27291,12.43958 -27.28116,16.5783 -0.59743,0.82195 0.59326,1.82903 1.77015,1.94582 2.79627,0.27751 7.23971,-2.99169 12.39106,-4.8256 2.56957,-0.91479 8.95488,-3.1133 9.37139,2.33497 0.47523,6.21647 1.4706,9.68296 -8.74664,15.41083 -2.49903,1.40098 -15.31239,4.52297 -16.24373,5.91528 -1.14539,1.7123 -0.0785,3.47225 3.95682,2.80197 2.81141,-0.46701 18.95101,-6.38227 18.95101,-6.38227 2.02716,1.49585 3.54031,11.05222 -0.31237,14.08768 -5.96166,4.6971 -18.84691,8.48374 -19.88816,10.66306 -1.04127,2.17931 7.83602,-0.39234 10.41264,-1.08965 7.43641,-2.01255 9.57964,-4.12514 12.59932,-3.19115 1.73185,0.53567 3.51964,9.24792 -0.83301,13.3872 -3.82634,3.63875 -17.59739,7.08276 -17.59739,8.17241 0,1.08965 1.94197,1.37514 4.37331,1.24531 7.28887,-0.38915 12.49519,-5.7596 14.16121,-5.13693 1.66603,0.62265 3.9568,0.31133 3.9568,5.29262 0,4.98127 0.93091,27.63211 3.54031,27.63211 3.1238,10e-6 2.15196,-5.26573 2.08253,-9.57339 -0.0627,-3.89134 -1.87428,-24.59667 2.29079,-24.12967 4.16506,0.46699 17.2149,4.4719 19.78403,3.5803 5.8311,-2.02365 -5.93521,-4.43646 -7.18473,-4.43646 -1.24952,0 -11.11381,-2.6844 -14.05708,-5.5261 -2.49903,-2.41282 -4.26918,-11.36354 -2.91554,-11.36354 3.5403,0 17.08482,4.49064 20.4088,5.13694 2.57207,0.50009 4.37332,-0.31133 3.74855,-1.71232 -0.62476,-1.40098 -8.92831,-2.90879 -14.47358,-5.2926 -3.22937,-1.38826 -8.06739,-3.86178 -10.20441,-5.68179 -2.9883,-2.54503 -2.40253,-9.53622 -0.20824,-10.11822 3.22792,-0.85616 14.36945,5.75961 21.45006,6.6936 3.24266,0.42773 4.72049,-1.15756 2.18665,-2.33497 -6.34964,-2.95055 -17.80563,-6.14879 -23.11608,-13.93203 -2.27075,-3.32812 -4.74739,-19.81163 -2.08254,-19.14679 0,0 5.937,4.30574 10.82916,5.68177 4.74967,1.33594 11.45392,1.16748 11.45392,1.16748 -0.14627,-1.7097 -1.69809,-2.35845 -7.70536,-3.42462 -5.17418,-0.91832 -9.16313,-4.2808 -11.76629,-6.92709 -1.72714,-1.75578 -4.22751,-4.13207 -5.1022,-3.50246 z"
     id="path4235-3-6-0"
     inkscape:connector-curvature="0"
     sodipodi:nodetypes="sssssssssssssssssssssssssssssssssssssss" />
  <path
     style="fill:#000000;fill-opacity:1;fill-rule:evenodd;stroke:none;stroke-width:0.73472148px;stroke-linecap:butt;stroke-linejoin:miter;stroke-opacity:1"
     d="m 988.4343,346.21787 c -21.6398,15.57622 -24.2729,12.43958 -27.2812,16.5783 -0.5974,0.82195 0.5933,1.82903 1.7702,1.94582 2.7962,0.27751 7.2397,-2.99169 12.391,-4.8256 2.5696,-0.91479 8.9549,-3.1133 9.3714,2.33497 0.4752,6.21647 1.4706,9.68296 -8.7466,15.41083 -2.4991,1.40098 -15.3124,4.52297 -16.2438,5.91528 -1.1454,1.7123 -0.079,3.47225 3.9569,2.80197 2.8114,-0.46701 18.951,-6.38227 18.951,-6.38227 2.0271,1.49585 3.5403,11.05222 -0.3124,14.08768 -5.9617,4.6971 -18.8469,8.48374 -19.8882,10.66306 -1.0412,2.17931 7.8361,-0.39234 10.4127,-1.08965 7.4364,-2.01255 9.5796,-4.12514 12.5993,-3.19115 1.7318,0.53567 3.5196,9.24792 -0.833,13.3872 -3.8264,3.63875 -17.5974,7.08276 -17.5974,8.17241 0,1.08965 1.942,1.37514 4.3733,1.24531 7.2889,-0.38915 12.4952,-5.7596 14.1612,-5.13693 1.666,0.62265 3.9568,0.31133 3.9568,5.29262 0,4.98127 0.9309,27.63212 3.5403,27.63212 3.1238,10e-6 2.152,-5.26574 2.0826,-9.5734 -0.063,-3.89134 -1.8743,-24.59667 2.2907,-24.12967 4.1651,0.46699 17.2149,4.4719 19.7841,3.5803 5.8311,-2.02365 -5.9352,-4.43646 -7.1848,-4.43646 -1.2495,0 -11.1138,-2.6844 -14.057,-5.5261 -2.4991,-2.41282 -4.2692,-11.36354 -2.9156,-11.36354 3.5403,0 17.0848,4.49064 20.4088,5.13694 2.5721,0.50009 4.3734,-0.31133 3.7486,-1.71232 -0.6248,-1.40098 -8.9283,-2.90879 -14.4736,-5.2926 -3.2294,-1.38826 -8.0674,-3.86178 -10.2044,-5.68179 -2.9883,-2.54503 -2.4025,-9.53622 -0.2083,-10.11822 3.228,-0.85616 14.3695,5.75961 21.4501,6.6936 3.2427,0.42773 4.7205,-1.15756 2.1867,-2.33497 -6.3497,-2.95055 -17.8057,-6.14879 -23.1161,-13.93203 -2.2708,-3.32812 -4.7474,-19.81163 -2.0826,-19.14679 0,0 5.937,4.30574 10.8292,5.68177 4.7497,1.33594 11.4539,1.16748 11.4539,1.16748 -0.1463,-1.7097 -1.6981,-2.35845 -7.7053,-3.42462 -5.1742,-0.91832 -9.1632,-4.2808 -11.7663,-6.92709 -1.7272,-1.75578 -4.2275,-4.13207 -5.1022,-3.50246 z"
     id="path4235-3-6-6"
     inkscape:connector-curvature="0"
     sodipodi:nodetypes="sssssssssssssssssssssssssssssssssssssss" />
  <path
     style="fill:#000000;fill-opacity:1;fill-rule:evenodd;stroke:none;stroke-width:1px;stroke-linecap:butt;stroke-linejoin:miter;stroke-opacity:1"
     d="m 1067.0688,590.14518 c -14.7732,14.22598 -16.5707,11.36124 -18.6244,15.14121 -0.4079,0.7507 0.405,1.67047 1.2084,1.77714 1.909,0.25345 4.9425,-2.73236 8.4592,-4.4073 1.7542,-0.83549 6.1134,-2.84342 6.3977,2.13257 0.3245,5.67758 1.004,8.84357 -5.9711,14.07493 -1.7061,1.27954 -10.4536,4.13089 -11.0894,5.4025 -0.782,1.56388 -0.054,3.17126 2.7012,2.55908 1.9193,-0.42652 12.9376,-5.82902 12.9376,-5.82902 1.3839,1.3662 2.4169,10.09415 -0.2132,12.86649 -4.07,4.28994 -12.8665,7.74832 -13.5774,9.73871 -0.7109,1.9904 5.3496,-0.35832 7.1086,-0.99519 5.0767,-1.83809 6.5399,-3.76754 8.6013,-2.91451 1.1824,0.48923 2.4028,8.44626 -0.5686,12.22671 -2.6122,3.32332 -12.0135,6.46878 -12.0135,7.46398 0,0.9952 1.3258,1.25593 2.9856,1.13737 4.976,-0.35543 8.5302,-5.26033 9.6676,-4.69164 1.1374,0.56868 2.7013,0.28434 2.7013,4.83382 0,4.54946 0.6355,13.15081 2.4169,13.15081 2.1325,10e-6 1.4691,-4.80926 1.4217,-8.74352 -0.043,-3.55402 -1.2795,-10.37848 1.5639,-9.95197 2.8434,0.42651 11.7523,4.08425 13.5062,3.26993 3.9808,-1.84822 -4.0519,-4.05187 -4.9049,-4.05187 -0.853,0 -7.5872,-2.4517 -9.5965,-5.04708 -1.7061,-2.20365 -2.9145,-10.37848 -1.9904,-10.37848 2.4169,0 11.6635,4.10137 13.9327,4.69164 1.756,0.45675 2.9856,-0.28434 2.5591,-1.56388 -0.4265,-1.27954 -6.0952,-2.65663 -9.8809,-4.83381 -2.2046,-1.26791 -5.5074,-3.52701 -6.9664,-5.18925 -2.04,-2.32441 -1.6401,-8.70956 -0.1421,-9.24111 2.2036,-0.78195 9.8098,5.26032 14.6436,6.11335 2.2137,0.39065 3.2226,-1.05721 1.4928,-2.13257 -4.3348,-2.69477 -12.1556,-5.61575 -15.781,-12.72431 -1.5502,-3.03962 -3.241,-18.09424 -1.4217,-17.48704 0,0 4.0531,3.9325 7.3929,5.18924 3.2425,1.22014 7.8194,1.06629 7.8194,1.06629 -0.1,-1.56149 -1.1593,-2.15402 -5.2603,-3.12776 -3.5324,-0.83871 -6.2556,-3.90971 -8.0327,-6.32661 -1.1791,-1.60357 -2.886,-3.77388 -3.4832,-3.19885 z"
     id="path4235-3-0-2"
     inkscape:connector-curvature="0"
     sodipodi:nodetypes="sssssssssssssssssssssssssssssssssssssss" />
  <path
     style="fill:#000000;fill-opacity:1;stroke:none"
     d="m 127.31486,1077.1509 c -0.52059,-0.6353 -1.2394,-3.9199 -1.59733,-7.2993 l -0.6508,-6.1442 -8.71033,-10.0558 c -4.79068,-5.5306 -9.49891,-10.9943 -10.46274,-12.1416 -0.96382,-1.1472 -4.44616,-4.0921 -7.73853,-6.5443 -5.12454,-3.8167 -7.06388,-5.9152 -7.06388,-7.6434 0,-0.207 0.62911,-0.3764 1.39801,-0.3764 2.33341,0 13.24193,9.4309 21.09586,18.2383 9.13304,10.2418 11.55802,12.2452 12.67889,10.4748 0.43982,-0.6947 0.80588,-2.6956 0.81346,-4.4464 0.0117,-2.7011 -1.01732,-4.337 -6.7931,-10.8 -7.65734,-8.5684 -26.49312,-32.889 -26.49312,-34.2077 0,-0.4725 0.78878,-0.859 1.75284,-0.859 1.18002,0 4.38871,3.4558 9.81874,10.575 8.66647,11.3624 16.77174,20.9581 18.62632,22.0514 0.63107,0.3721 1.73406,0.4513 2.45109,0.1762 1.03161,-0.3959 1.20983,-1.8518 0.85393,-6.9764 -0.37928,-5.4614 -0.86013,-6.9698 -3.06864,-9.6262 -1.44038,-1.7325 -5.2702,-6.39 -8.51071,-10.35 -3.24051,-3.96 -7.06897,-8.1406 -8.5077,-9.2902 -3.05647,-2.4423 -3.5204,-5.5598 -0.82737,-5.5598 1.14389,0 3.81999,2.5058 7.425,6.9525 9.64642,11.8987 12.23248,14.4011 13.27672,12.8475 0.49904,-0.7425 0.77727,-3.78 0.61831,-6.75 -0.2752,-5.1414 -0.5962,-5.8007 -6.70389,-13.7684 -5.9133,-7.7141 -7.26858,-11.0908 -4.38335,-10.9211 0.56579,0.033 3.1838,2.6718 5.8178,5.8635 2.63399,3.1916 5.16524,5.5705 5.625,5.2864 0.45975,-0.2842 0.83591,-1.8292 0.83591,-3.4335 0,-2.7687 1.30941,-5.0769 2.88,-5.0769 0.396,0 0.72,2.6554 0.72,5.9009 l 0,5.9008 2.7553,-1.6258 c 1.51542,-0.8943 5.59062,-4.213 9.056,-7.3749 4.55314,-4.1545 6.57319,-5.4765 7.28318,-4.7665 1.429,1.429 -2.13792,5.7285 -11.22199,13.5268 -8.45514,7.2583 -9.67249,9.1536 -9.67249,15.0593 0,5.0509 1.80676,6.0416 5.22873,2.8669 2.70859,-2.5128 19.70892,-13.2875 20.96501,-13.2875 0.44344,0 0.80626,0.7864 0.80626,1.7475 0,1.2519 -2.96285,3.6132 -10.44564,8.325 -11.51775,7.2526 -16.50704,11.9911 -16.64156,15.8051 -0.1252,3.5496 0.201,9.6216 0.53526,9.9638 0.50677,0.5186 6.02608,-2.6479 16.17318,-9.279 23.11705,-15.1068 27.47876,-17.4114 27.47876,-14.5192 0,1.6081 -3.66026,4.3199 -15.3,11.3352 -11.27934,6.7982 -22.90514,14.6859 -26.325,17.8607 -1.98412,1.8419 -2.475,3.091 -2.475,6.2978 l 0,4.0001 3.375,-0.4535 c 1.85625,-0.2494 6.95896,-2.1253 11.33936,-4.1685 4.38041,-2.0433 8.12639,-3.715 8.32441,-3.715 0.19802,0 4.04635,-1.821 8.55184,-4.0468 8.0656,-3.9843 9.80939,-4.2983 9.80939,-1.7661 0,1.3236 -16.89354,9.7845 -32.22271,16.1384 -4.60472,1.9086 -8.76907,4.2117 -9.2541,5.118 -0.48503,0.9063 -0.76743,4.7463 -0.62754,8.5333 0.25336,6.8588 -0.61234,8.9414 -2.67204,6.4282 z"
     id="path4232-3-9-6"
     inkscape:connector-curvature="0"
     sodipodi:nodetypes="sscssssssssssssssssssssssscssssscsssssssssscssssscsssssssss" />
  <path
     style="fill:#000000;fill-opacity:1;fill-rule:evenodd;stroke:none;stroke-width:1px;stroke-linecap:butt;stroke-linejoin:miter;stroke-opacity:1"
     d="M 376.30664 0.17773438 C 372.34027 2.5244631 369.14407 4.5098744 368.61328 5.9960938 C 367.38799 9.4269038 377.83324 5.37901 380.86523 4.28125 C 385.07187 2.7581916 387.79533 1.2232794 389.92969 0.17773438 L 376.30664 0.17773438 z M 396.46289 0.17773438 C 398.15006 3.5015557 399.17659 14.650632 394.71094 20.332031 C 390.20838 26.060381 374.00391 31.481866 374.00391 33.197266 C 374.00391 34.912676 376.28936 35.362563 379.15039 35.158203 C 387.72742 34.545563 393.85398 26.090083 395.81445 27.070312 C 397.77491 28.050542 400.4707 27.560494 400.4707 35.402344 C 400.4707 43.244184 401.56616 58.070303 404.63672 58.070312 C 408.31259 58.070323 407.16763 49.78141 407.08594 43 C 407.01214 36.874 404.88204 25.110533 409.7832 25.845703 C 414.68435 26.580873 430.03931 32.886042 433.0625 31.482422 C 439.92412 28.296672 426.07776 24.498047 424.60742 24.498047 C 423.13707 24.498047 411.52984 20.272428 408.06641 15.798828 C 405.86216 12.95168 404.13953 4.3216267 404.08594 0.17773438 L 396.46289 0.17773438 z M 412.97266 0.17773438 C 419.01667 2.3399765 426.19881 5.3578802 428.65234 5.9960938 C 431.67898 6.7833838 433.79767 5.5063012 433.0625 3.3007812 C 432.73884 2.3297959 430.62212 1.3172345 427.84375 0.17773438 L 412.97266 0.17773438 z "
     id="path4235-3-1" />
  <path
     style="fill:#000000;fill-opacity:1;stroke:none"
     d="m 321.77076,423.68509 c -0.52059,-0.63523 -1.2394,-3.91988 -1.59733,-7.29921 l -0.6508,-6.14424 -8.71033,-10.05576 c -4.79068,-5.53067 -9.49891,-10.99439 -10.46274,-12.14161 -0.96382,-1.14721 -4.44616,-4.09215 -7.73853,-6.54429 -5.12454,-3.81676 -7.06388,-5.91522 -7.06388,-7.64347 0,-0.20701 0.62911,-0.37639 1.39801,-0.37639 2.33341,0 13.24193,9.43089 21.09586,18.2383 9.13304,10.24179 11.55802,12.24521 12.67889,10.4748 0.43982,-0.69471 0.80588,-2.69557 0.81346,-4.44636 0.0117,-2.70108 -1.01732,-4.33705 -6.7931,-10.8 -7.65734,-8.56838 -26.49312,-32.88903 -26.49312,-34.20776 0,-0.47244 0.78878,-0.85898 1.75284,-0.85898 1.18002,0 4.38871,3.45583 9.81874,10.575 8.66647,11.36238 16.77174,20.9581 18.62632,22.05143 0.63107,0.37204 1.73406,0.45132 2.45109,0.17617 1.03161,-0.39587 1.20983,-1.85181 0.85393,-6.97643 -0.37928,-5.46136 -0.86013,-6.96977 -3.06864,-9.62617 -1.44038,-1.7325 -5.2702,-6.39 -8.51071,-10.35 -3.24051,-3.96 -7.06897,-8.14061 -8.5077,-9.29023 -3.05647,-2.4423 -3.5204,-5.55977 -0.82737,-5.55977 1.14389,0 3.81999,2.50583 7.425,6.95253 9.64642,11.89868 12.23248,14.40113 13.27672,12.84747 0.49904,-0.7425 0.77727,-3.78 0.61831,-6.75 -0.2752,-5.14143 -0.5962,-5.80071 -6.70389,-13.76838 -5.9133,-7.71409 -7.26858,-11.09078 -4.38335,-10.92113 0.56579,0.0333 3.1838,2.67184 5.8178,5.86351 2.63399,3.19166 5.16524,5.57054 5.625,5.28639 0.45975,-0.28414 0.83591,-1.82922 0.83591,-3.43351 0,-2.76864 1.30941,-5.07688 2.88,-5.07688 0.396,0 0.72,2.6554 0.72,5.90089 l 0,5.90087 2.7553,-1.62587 c 1.51542,-0.89424 5.59062,-4.21294 9.056,-7.3749 4.55314,-4.15446 6.57319,-5.4765 7.28318,-4.76651 1.429,1.429 -2.13792,5.72852 -11.22199,13.52679 -8.45514,7.25837 -9.67249,9.15369 -9.67249,15.05933 0,5.0509 1.80676,6.04158 5.22873,2.86696 2.70859,-2.5128 19.70892,-13.28756 20.96501,-13.28756 0.44344,0 0.80626,0.78639 0.80626,1.74754 0,1.25185 -2.96285,3.61319 -10.44564,8.325 -11.51775,7.25254 -16.50704,11.99104 -16.64156,15.80505 -0.1252,3.54959 0.201,9.62164 0.53526,9.96378 0.50677,0.51868 6.02608,-2.64788 16.17318,-9.27893 23.11705,-15.10683 27.47876,-17.41147 27.47876,-14.51926 0,1.60815 -3.66026,4.31992 -15.3,11.33526 -11.27934,6.79814 -22.90514,14.68588 -26.325,17.86068 -1.98412,1.84194 -2.475,3.091 -2.475,6.29776 l 0,4.00013 3.375,-0.45351 c 1.85625,-0.24943 6.95896,-2.12525 11.33936,-4.16851 4.38041,-2.04324 8.12639,-3.71499 8.32441,-3.71499 0.19802,0 4.04635,-1.82103 8.55184,-4.04674 8.0656,-3.98439 9.80939,-4.29836 9.80939,-1.76615 0,1.32358 -16.89354,9.78452 -32.22271,16.13836 -4.60472,1.90863 -8.76907,4.21175 -9.2541,5.11805 -0.48503,0.9063 -0.76743,4.74628 -0.62754,8.53329 0.25336,6.85877 -0.61234,8.94142 -2.67204,6.42816 z"
     id="path4232-3-2-7"
     inkscape:connector-curvature="0"
     sodipodi:nodetypes="sscssssssssssssssssssssssscssssscsssssssssscssssscsssssssss" />
  <path
     style="fill:#000000;fill-opacity:1;stroke:none"
     d="m 123.7641,549.45624 c -0.52059,-0.44872 -1.2394,-2.76894 -1.59733,-5.15605 l -0.6508,-4.3402 -8.71033,-7.10324 c -4.79068,-3.90678 -9.49891,-7.76627 -10.46274,-8.57664 -0.96382,-0.81038 -4.446162,-2.89064 -7.738532,-4.62279 -5.12454,-2.6961 -7.06388,-4.17842 -7.06388,-5.39923 0,-0.14623 0.62911,-0.26588 1.39801,-0.26588 2.33341,0 13.241932,6.66184 21.095862,12.88326 9.13304,7.23464 11.55802,8.64983 12.67889,7.39924 0.43982,-0.49073 0.80588,-1.90411 0.81346,-3.14084 0.0117,-1.908 -1.01732,-3.06363 -6.7931,-7.62896 -7.65734,-6.05257 -26.493122,-23.23231 -26.493122,-24.16384 0,-0.33372 0.78878,-0.60677 1.75284,-0.60677 1.18002,0 4.38871,2.44114 9.818742,7.47002 8.66647,8.02621 16.77174,14.80448 18.62632,15.57679 0.63107,0.26281 1.73406,0.31881 2.45109,0.12445 1.03161,-0.27964 1.20983,-1.30809 0.85393,-4.92805 -0.37928,-3.85782 -0.86013,-4.92334 -3.06864,-6.79978 -1.44038,-1.22381 -5.2702,-4.5138 -8.51071,-7.31108 -3.24051,-2.79728 -7.06897,-5.7504 -8.5077,-6.56248 -3.05647,-1.7252 -3.5204,-3.92733 -0.82737,-3.92733 1.14389,0 3.81999,1.77008 7.425,4.91116 9.64642,8.40504 12.23248,10.17274 13.27672,9.07526 0.49904,-0.5245 0.77727,-2.67014 0.61831,-4.7681 -0.2752,-3.63183 -0.5962,-4.09754 -6.70389,-9.72578 -5.9133,-5.44911 -7.26858,-7.83436 -4.38335,-7.71452 0.56579,0.0235 3.1838,1.88735 5.8178,4.1419 2.63399,2.25454 5.16524,3.93494 5.625,3.73422 0.45975,-0.20071 0.83591,-1.29213 0.83591,-2.42538 0,-1.95572 1.30941,-3.58623 2.88,-3.58623 0.396,0 0.72,1.87574 0.72,4.1683 l 0,4.16829 2.7553,-1.14849 c 1.51542,-0.63168 5.59062,-2.97596 9.056,-5.20952 4.55314,-2.93465 6.57319,-3.86852 7.28318,-3.36699 1.429,1.00942 -2.13792,4.04654 -11.22199,9.55512 -8.45514,5.1272 -9.67249,6.46603 -9.67249,10.63768 0,3.56788 1.80676,4.26768 5.22873,2.02518 2.70859,-1.77501 19.70892,-9.38613 20.96501,-9.38613 0.44344,0 0.80626,0.55549 0.80626,1.23443 0,0.88429 -2.96285,2.5523 -10.44564,5.88066 -11.51775,5.12308 -16.50704,8.47028 -16.64156,11.16444 -0.1252,2.50738 0.201,6.79658 0.53526,7.03827 0.50677,0.36638 6.02608,-1.87043 16.17318,-6.5545 23.11705,-10.67123 27.47876,-12.2992 27.47876,-10.25618 0,1.13597 -3.66026,3.05152 -15.3,8.00705 -11.27934,4.8021 -22.90514,10.37388 -26.325,12.61651 -1.98412,1.30112 -2.475,2.18344 -2.475,4.44865 l 0,2.82563 3.375,-0.32036 c 1.85625,-0.17619 6.95896,-1.50124 11.33936,-2.94457 4.38041,-1.44331 8.12639,-2.62421 8.32441,-2.62421 0.19802,0 4.04635,-1.28635 8.55184,-2.85856 8.0656,-2.81451 9.80939,-3.03629 9.80939,-1.24758 0,0.93496 -16.89354,6.91164 -32.22271,11.3999 -4.60472,1.34822 -8.76907,2.97511 -9.2541,3.61531 -0.48503,0.64019 -0.76743,3.3527 -0.62754,6.02778 0.25336,4.84494 -0.61234,6.31609 -2.67204,4.54076 z"
     id="path4232-3-2-7-9"
     inkscape:connector-curvature="0"
     sodipodi:nodetypes="sscssssssssssssssssssssssscssssscsssssssssscssssscsssssssss" />
</svg>
